M48
; DRILL file {KiCad (7.0.0-0)} date Monday, 08 May 2023 at 12:54:53
; FORMAT={-:-/ absolute / metric / decimal}
; #@! TF.CreationDate,2023-05-08T12:54:53+01:00
; #@! TF.GenerationSoftware,Kicad,Pcbnew,(7.0.0-0)
; #@! TF.FileFunction,Plated,1,4,PTH
FMAT,2
METRIC
; #@! TA.AperFunction,Plated,PTH,ViaDrill
T1C0.400
; #@! TA.AperFunction,Plated,PTH,ComponentDrill
T2C0.700
; #@! TA.AperFunction,Plated,PTH,ComponentDrill
T3C0.750
; #@! TA.AperFunction,Plated,PTH,ComponentDrill
T4C0.800
; #@! TA.AperFunction,Plated,PTH,ComponentDrill
T5C1.000
; #@! TA.AperFunction,Plated,PTH,ComponentDrill
T6C2.700
%
G90
G05
T1
X140.0Y-124.145
X148.382Y-128.521
X149.647Y-128.521
X153.478Y-128.521
X159.639Y-98.894
X162.814Y-130.944
X171.303Y-104.386
X172.436Y-110.458
X175.623Y-66.898
X179.855Y-94.825
X180.742Y-124.428
X182.118Y-130.556
X183.519Y-129.861
X184.613Y-129.833
X186.238Y-130.642
X187.89Y-126.926
T2
X109.24Y-59.944
X109.3Y-57.15
X114.32Y-59.944
X114.38Y-57.15
X130.114Y-80.098
X130.114Y-85.178
X131.572Y-126.746
X136.652Y-126.746
T3
X125.73Y-128.446
X127.254Y-128.446
X128.829Y-128.446
T4
X104.847Y-67.996
X104.847Y-70.496
X105.086Y-104.487
X105.156Y-107.188
X105.156Y-122.428
X105.3Y-81.42
X105.3Y-83.92
X105.3Y-94.628
X105.3Y-97.128
X107.586Y-104.487
X107.696Y-107.188
X107.696Y-122.428
X108.202Y-65.466
X108.202Y-73.086
X108.602Y-79.114
X108.602Y-86.734
X108.602Y-92.322
X108.602Y-99.942
X109.4Y-52.328
X110.236Y-107.188
X110.236Y-122.428
X110.742Y-65.466
X110.742Y-73.086
X111.142Y-79.114
X111.142Y-86.734
X111.142Y-92.322
X111.142Y-99.942
X112.776Y-107.188
X112.776Y-122.428
X113.282Y-65.466
X113.282Y-73.086
X113.682Y-79.114
X113.682Y-86.734
X113.682Y-92.322
X113.682Y-99.942
X114.3Y-52.328
X115.316Y-107.188
X115.316Y-122.428
X115.822Y-65.466
X115.822Y-73.086
X116.222Y-79.114
X116.222Y-86.734
X116.222Y-92.322
X116.222Y-99.942
X117.856Y-107.188
X117.856Y-122.428
X118.362Y-65.466
X118.362Y-73.086
X118.404Y-61.722
X118.762Y-79.114
X118.762Y-86.734
X118.762Y-92.322
X118.762Y-99.942
X120.396Y-107.188
X120.396Y-122.428
X120.902Y-65.466
X120.902Y-73.086
X120.904Y-61.722
X121.302Y-79.114
X121.302Y-86.734
X121.302Y-92.322
X121.302Y-99.942
X122.936Y-107.188
X122.936Y-122.428
X123.442Y-65.466
X123.442Y-73.086
X123.842Y-79.114
X123.842Y-86.734
X123.842Y-92.322
X123.842Y-99.942
X124.226Y-61.722
X125.476Y-107.188
X125.476Y-122.428
X126.726Y-61.722
X128.016Y-107.188
X128.016Y-122.428
X130.556Y-107.188
X130.556Y-122.428
X133.096Y-68.072
X133.096Y-70.572
X133.096Y-107.188
X133.096Y-122.428
X133.514Y-80.668
X133.514Y-82.668
X133.514Y-84.668
X135.636Y-107.188
X135.636Y-122.428
X136.398Y-65.532
X136.398Y-73.152
X136.514Y-80.668
X136.514Y-82.668
X136.514Y-84.668
X138.176Y-107.188
X138.176Y-122.428
X138.43Y-61.722
X138.938Y-65.532
X138.938Y-73.152
X140.97Y-61.722
X141.478Y-65.532
X141.478Y-73.152
X143.51Y-61.722
X144.018Y-65.532
X144.018Y-73.152
X144.72Y-110.854
X144.72Y-113.394
X144.72Y-115.934
X144.72Y-118.474
X145.034Y-81.026
X145.034Y-96.266
X146.05Y-61.722
X146.558Y-65.532
X146.558Y-73.152
X147.26Y-108.314
X147.26Y-110.854
X147.26Y-113.394
X147.26Y-115.934
X147.26Y-118.474
X147.26Y-121.014
X147.574Y-81.026
X147.574Y-96.266
X148.59Y-61.722
X149.098Y-65.532
X149.098Y-73.152
X149.8Y-108.314
X149.8Y-110.854
X149.8Y-118.474
X149.8Y-121.014
X149.9Y-125.984
X150.114Y-81.026
X150.114Y-96.266
X151.13Y-61.722
X151.638Y-65.532
X151.638Y-73.152
X152.34Y-108.314
X152.34Y-110.854
X152.34Y-118.474
X152.34Y-121.014
X152.4Y-125.984
X152.654Y-81.026
X152.654Y-96.266
X154.88Y-108.314
X154.88Y-110.854
X154.88Y-113.394
X154.88Y-115.934
X154.88Y-118.474
X154.88Y-121.014
X155.194Y-81.026
X155.194Y-96.266
X157.42Y-110.854
X157.42Y-113.394
X157.42Y-115.934
X157.42Y-118.474
X157.734Y-81.026
X157.734Y-96.266
X160.274Y-81.026
X160.274Y-96.266
X161.036Y-68.072
X161.036Y-70.572
X162.814Y-81.026
X162.814Y-96.266
X163.576Y-109.768
X163.576Y-112.268
X163.576Y-115.316
X163.576Y-122.936
X164.338Y-65.532
X164.338Y-73.152
X165.354Y-81.026
X165.354Y-96.266
X166.116Y-115.316
X166.116Y-122.936
X166.878Y-65.532
X166.878Y-73.152
X167.894Y-81.026
X167.894Y-96.266
X167.894Y-104.18
X167.894Y-106.68
X168.656Y-115.316
X168.656Y-122.936
X169.418Y-65.532
X169.418Y-73.152
X170.434Y-81.026
X170.434Y-96.266
X171.191Y-101.59
X171.191Y-109.21
X171.196Y-115.316
X171.196Y-122.936
X171.958Y-65.532
X171.958Y-73.152
X172.974Y-81.026
X172.974Y-96.266
X173.731Y-101.59
X173.731Y-109.21
X173.736Y-115.316
X173.736Y-122.936
X174.498Y-65.532
X174.498Y-73.152
X175.514Y-81.026
X175.514Y-96.266
X176.271Y-101.59
X176.271Y-109.21
X176.276Y-115.316
X176.276Y-122.936
X177.038Y-65.532
X177.038Y-73.152
X178.054Y-81.026
X178.054Y-96.266
X178.811Y-101.59
X178.811Y-109.21
X178.816Y-115.316
X178.816Y-122.936
X179.578Y-65.532
X179.578Y-73.152
X181.351Y-101.59
X181.351Y-109.21
X181.356Y-115.316
X181.356Y-122.936
X182.334Y-87.536
X182.334Y-90.036
X183.891Y-101.59
X183.891Y-109.21
X183.896Y-115.316
X183.896Y-122.936
X186.431Y-101.59
X186.431Y-109.21
X186.436Y-115.316
X186.436Y-122.936
X189.23Y-68.072
X189.23Y-70.572
X189.23Y-87.416
X189.23Y-89.916
X191.77Y-104.14
X191.77Y-106.64
X191.77Y-117.896
X191.77Y-120.396
X192.532Y-65.532
X192.532Y-73.152
X192.547Y-84.826
X192.547Y-92.446
X195.072Y-65.532
X195.072Y-73.152
X195.072Y-101.6
X195.072Y-109.22
X195.072Y-115.316
X195.072Y-122.936
X195.087Y-84.826
X195.087Y-92.446
X195.406Y-129.876
X197.612Y-65.532
X197.612Y-73.152
X197.612Y-101.6
X197.612Y-109.22
X197.612Y-115.316
X197.612Y-122.936
X197.627Y-84.826
X197.627Y-92.446
X197.906Y-129.876
X200.152Y-65.532
X200.152Y-73.152
X200.152Y-101.6
X200.152Y-109.22
X200.152Y-115.316
X200.152Y-122.936
X200.167Y-84.826
X200.167Y-92.446
X202.692Y-65.532
X202.692Y-73.152
X202.692Y-101.6
X202.692Y-109.22
X202.692Y-115.316
X202.692Y-122.936
X202.707Y-84.826
X202.707Y-92.446
X203.748Y-129.794
X205.232Y-65.532
X205.232Y-73.152
X205.232Y-101.6
X205.232Y-109.22
X205.232Y-115.316
X205.232Y-122.936
X205.247Y-84.826
X205.247Y-92.446
X206.248Y-129.794
X207.772Y-65.532
X207.772Y-73.152
X207.772Y-101.6
X207.772Y-109.22
X207.772Y-115.316
X207.772Y-122.936
X207.787Y-84.826
X207.787Y-92.446
X210.312Y-65.532
X210.312Y-73.152
X210.312Y-101.6
X210.312Y-109.22
X210.312Y-115.316
X210.312Y-122.936
X210.327Y-84.826
X210.327Y-92.446
T5
X137.16Y-54.61
X137.16Y-57.15
X139.7Y-54.61
X139.7Y-57.15
X142.24Y-54.61
X142.24Y-57.15
X144.78Y-54.61
X144.78Y-57.15
X147.32Y-54.61
X147.32Y-57.15
X149.86Y-54.61
X149.86Y-57.15
X152.4Y-54.61
X152.4Y-57.15
X154.94Y-54.61
X154.94Y-57.15
X157.48Y-54.61
X157.48Y-57.15
X160.02Y-54.61
X160.02Y-57.15
X162.56Y-54.61
X162.56Y-57.15
X165.1Y-54.61
X165.1Y-57.15
X167.64Y-54.61
X167.64Y-57.15
X170.18Y-54.61
X170.18Y-57.15
X172.72Y-54.61
X172.72Y-57.15
X175.26Y-54.61
X175.26Y-57.15
X177.8Y-54.61
X177.8Y-57.15
T6
X104.14Y-43.942
X104.14Y-131.064
X211.836Y-43.942
X212.09Y-131.064
T0
M30
