G04 #@! TF.GenerationSoftware,KiCad,Pcbnew,(7.0.0-0)*
G04 #@! TF.CreationDate,2023-03-09T19:40:07+00:00*
G04 #@! TF.ProjectId,SFD700,53464437-3030-42e6-9b69-6361645f7063,rev?*
G04 #@! TF.SameCoordinates,Original*
G04 #@! TF.FileFunction,Legend,Top*
G04 #@! TF.FilePolarity,Positive*
%FSLAX46Y46*%
G04 Gerber Fmt 4.6, Leading zero omitted, Abs format (unit mm)*
G04 Created by KiCad (PCBNEW (7.0.0-0)) date 2023-03-09 19:40:07*
%MOMM*%
%LPD*%
G01*
G04 APERTURE LIST*
%ADD10C,0.120000*%
%ADD11C,0.150000*%
%ADD12C,0.100000*%
G04 APERTURE END LIST*
D10*
X215910000Y-40090000D02*
X215910000Y-134910000D01*
X100090000Y-40090000D02*
X215910000Y-40090000D01*
X100090000Y-134910000D02*
X100090000Y-40090000D01*
X134020000Y-134910000D02*
X100090000Y-134910000D01*
X215910000Y-134910000D02*
X192020000Y-134910000D01*
D11*
X192998094Y-108172619D02*
X192998094Y-107363095D01*
X192998094Y-107363095D02*
X192950475Y-107267857D01*
X192950475Y-107267857D02*
X192902856Y-107220238D01*
X192902856Y-107220238D02*
X192807618Y-107172619D01*
X192807618Y-107172619D02*
X192617142Y-107172619D01*
X192617142Y-107172619D02*
X192521904Y-107220238D01*
X192521904Y-107220238D02*
X192474285Y-107267857D01*
X192474285Y-107267857D02*
X192426666Y-107363095D01*
X192426666Y-107363095D02*
X192426666Y-108172619D01*
X191426666Y-107172619D02*
X191998094Y-107172619D01*
X191712380Y-107172619D02*
X191712380Y-108172619D01*
X191712380Y-108172619D02*
X191807618Y-108029761D01*
X191807618Y-108029761D02*
X191902856Y-107934523D01*
X191902856Y-107934523D02*
X191998094Y-107886904D01*
X190807618Y-108172619D02*
X190712380Y-108172619D01*
X190712380Y-108172619D02*
X190617142Y-108125000D01*
X190617142Y-108125000D02*
X190569523Y-108077380D01*
X190569523Y-108077380D02*
X190521904Y-107982142D01*
X190521904Y-107982142D02*
X190474285Y-107791666D01*
X190474285Y-107791666D02*
X190474285Y-107553571D01*
X190474285Y-107553571D02*
X190521904Y-107363095D01*
X190521904Y-107363095D02*
X190569523Y-107267857D01*
X190569523Y-107267857D02*
X190617142Y-107220238D01*
X190617142Y-107220238D02*
X190712380Y-107172619D01*
X190712380Y-107172619D02*
X190807618Y-107172619D01*
X190807618Y-107172619D02*
X190902856Y-107220238D01*
X190902856Y-107220238D02*
X190950475Y-107267857D01*
X190950475Y-107267857D02*
X190998094Y-107363095D01*
X190998094Y-107363095D02*
X191045713Y-107553571D01*
X191045713Y-107553571D02*
X191045713Y-107791666D01*
X191045713Y-107791666D02*
X190998094Y-107982142D01*
X190998094Y-107982142D02*
X190950475Y-108077380D01*
X190950475Y-108077380D02*
X190902856Y-108125000D01*
X190902856Y-108125000D02*
X190807618Y-108172619D01*
X206284047Y-103942619D02*
X205617381Y-103942619D01*
X205617381Y-103942619D02*
X206045952Y-102942619D01*
X204807857Y-103609285D02*
X204807857Y-102942619D01*
X205045952Y-103990238D02*
X205284047Y-103275952D01*
X205284047Y-103275952D02*
X204665000Y-103275952D01*
X203807857Y-102942619D02*
X204284047Y-102942619D01*
X204284047Y-102942619D02*
X204284047Y-103942619D01*
X203522142Y-102990238D02*
X203379285Y-102942619D01*
X203379285Y-102942619D02*
X203141190Y-102942619D01*
X203141190Y-102942619D02*
X203045952Y-102990238D01*
X203045952Y-102990238D02*
X202998333Y-103037857D01*
X202998333Y-103037857D02*
X202950714Y-103133095D01*
X202950714Y-103133095D02*
X202950714Y-103228333D01*
X202950714Y-103228333D02*
X202998333Y-103323571D01*
X202998333Y-103323571D02*
X203045952Y-103371190D01*
X203045952Y-103371190D02*
X203141190Y-103418809D01*
X203141190Y-103418809D02*
X203331666Y-103466428D01*
X203331666Y-103466428D02*
X203426904Y-103514047D01*
X203426904Y-103514047D02*
X203474523Y-103561666D01*
X203474523Y-103561666D02*
X203522142Y-103656904D01*
X203522142Y-103656904D02*
X203522142Y-103752142D01*
X203522142Y-103752142D02*
X203474523Y-103847380D01*
X203474523Y-103847380D02*
X203426904Y-103895000D01*
X203426904Y-103895000D02*
X203331666Y-103942619D01*
X203331666Y-103942619D02*
X203093571Y-103942619D01*
X203093571Y-103942619D02*
X202950714Y-103895000D01*
X202569761Y-103847380D02*
X202522142Y-103895000D01*
X202522142Y-103895000D02*
X202426904Y-103942619D01*
X202426904Y-103942619D02*
X202188809Y-103942619D01*
X202188809Y-103942619D02*
X202093571Y-103895000D01*
X202093571Y-103895000D02*
X202045952Y-103847380D01*
X202045952Y-103847380D02*
X201998333Y-103752142D01*
X201998333Y-103752142D02*
X201998333Y-103656904D01*
X201998333Y-103656904D02*
X202045952Y-103514047D01*
X202045952Y-103514047D02*
X202617380Y-102942619D01*
X202617380Y-102942619D02*
X201998333Y-102942619D01*
X201141190Y-103609285D02*
X201141190Y-102942619D01*
X201379285Y-103990238D02*
X201617380Y-103275952D01*
X201617380Y-103275952D02*
X200998333Y-103275952D01*
X200664999Y-103847380D02*
X200617380Y-103895000D01*
X200617380Y-103895000D02*
X200522142Y-103942619D01*
X200522142Y-103942619D02*
X200284047Y-103942619D01*
X200284047Y-103942619D02*
X200188809Y-103895000D01*
X200188809Y-103895000D02*
X200141190Y-103847380D01*
X200141190Y-103847380D02*
X200093571Y-103752142D01*
X200093571Y-103752142D02*
X200093571Y-103656904D01*
X200093571Y-103656904D02*
X200141190Y-103514047D01*
X200141190Y-103514047D02*
X200712618Y-102942619D01*
X200712618Y-102942619D02*
X200093571Y-102942619D01*
X162813904Y-78610619D02*
X162813904Y-77801095D01*
X162813904Y-77801095D02*
X162766285Y-77705857D01*
X162766285Y-77705857D02*
X162718666Y-77658238D01*
X162718666Y-77658238D02*
X162623428Y-77610619D01*
X162623428Y-77610619D02*
X162432952Y-77610619D01*
X162432952Y-77610619D02*
X162337714Y-77658238D01*
X162337714Y-77658238D02*
X162290095Y-77705857D01*
X162290095Y-77705857D02*
X162242476Y-77801095D01*
X162242476Y-77801095D02*
X162242476Y-78610619D01*
X161242476Y-77610619D02*
X161813904Y-77610619D01*
X161528190Y-77610619D02*
X161528190Y-78610619D01*
X161528190Y-78610619D02*
X161623428Y-78467761D01*
X161623428Y-78467761D02*
X161718666Y-78372523D01*
X161718666Y-78372523D02*
X161813904Y-78324904D01*
X175127856Y-74352619D02*
X174461190Y-74352619D01*
X174461190Y-74352619D02*
X174889761Y-73352619D01*
X173651666Y-74019285D02*
X173651666Y-73352619D01*
X173889761Y-74400238D02*
X174127856Y-73685952D01*
X174127856Y-73685952D02*
X173508809Y-73685952D01*
X172651666Y-73352619D02*
X173127856Y-73352619D01*
X173127856Y-73352619D02*
X173127856Y-74352619D01*
X172365951Y-73400238D02*
X172223094Y-73352619D01*
X172223094Y-73352619D02*
X171984999Y-73352619D01*
X171984999Y-73352619D02*
X171889761Y-73400238D01*
X171889761Y-73400238D02*
X171842142Y-73447857D01*
X171842142Y-73447857D02*
X171794523Y-73543095D01*
X171794523Y-73543095D02*
X171794523Y-73638333D01*
X171794523Y-73638333D02*
X171842142Y-73733571D01*
X171842142Y-73733571D02*
X171889761Y-73781190D01*
X171889761Y-73781190D02*
X171984999Y-73828809D01*
X171984999Y-73828809D02*
X172175475Y-73876428D01*
X172175475Y-73876428D02*
X172270713Y-73924047D01*
X172270713Y-73924047D02*
X172318332Y-73971666D01*
X172318332Y-73971666D02*
X172365951Y-74066904D01*
X172365951Y-74066904D02*
X172365951Y-74162142D01*
X172365951Y-74162142D02*
X172318332Y-74257380D01*
X172318332Y-74257380D02*
X172270713Y-74305000D01*
X172270713Y-74305000D02*
X172175475Y-74352619D01*
X172175475Y-74352619D02*
X171937380Y-74352619D01*
X171937380Y-74352619D02*
X171794523Y-74305000D01*
X171175475Y-74352619D02*
X171080237Y-74352619D01*
X171080237Y-74352619D02*
X170984999Y-74305000D01*
X170984999Y-74305000D02*
X170937380Y-74257380D01*
X170937380Y-74257380D02*
X170889761Y-74162142D01*
X170889761Y-74162142D02*
X170842142Y-73971666D01*
X170842142Y-73971666D02*
X170842142Y-73733571D01*
X170842142Y-73733571D02*
X170889761Y-73543095D01*
X170889761Y-73543095D02*
X170937380Y-73447857D01*
X170937380Y-73447857D02*
X170984999Y-73400238D01*
X170984999Y-73400238D02*
X171080237Y-73352619D01*
X171080237Y-73352619D02*
X171175475Y-73352619D01*
X171175475Y-73352619D02*
X171270713Y-73400238D01*
X171270713Y-73400238D02*
X171318332Y-73447857D01*
X171318332Y-73447857D02*
X171365951Y-73543095D01*
X171365951Y-73543095D02*
X171413570Y-73733571D01*
X171413570Y-73733571D02*
X171413570Y-73971666D01*
X171413570Y-73971666D02*
X171365951Y-74162142D01*
X171365951Y-74162142D02*
X171318332Y-74257380D01*
X171318332Y-74257380D02*
X171270713Y-74305000D01*
X171270713Y-74305000D02*
X171175475Y-74352619D01*
X169984999Y-74352619D02*
X170175475Y-74352619D01*
X170175475Y-74352619D02*
X170270713Y-74305000D01*
X170270713Y-74305000D02*
X170318332Y-74257380D01*
X170318332Y-74257380D02*
X170413570Y-74114523D01*
X170413570Y-74114523D02*
X170461189Y-73924047D01*
X170461189Y-73924047D02*
X170461189Y-73543095D01*
X170461189Y-73543095D02*
X170413570Y-73447857D01*
X170413570Y-73447857D02*
X170365951Y-73400238D01*
X170365951Y-73400238D02*
X170270713Y-73352619D01*
X170270713Y-73352619D02*
X170080237Y-73352619D01*
X170080237Y-73352619D02*
X169984999Y-73400238D01*
X169984999Y-73400238D02*
X169937380Y-73447857D01*
X169937380Y-73447857D02*
X169889761Y-73543095D01*
X169889761Y-73543095D02*
X169889761Y-73781190D01*
X169889761Y-73781190D02*
X169937380Y-73876428D01*
X169937380Y-73876428D02*
X169984999Y-73924047D01*
X169984999Y-73924047D02*
X170080237Y-73971666D01*
X170080237Y-73971666D02*
X170270713Y-73971666D01*
X170270713Y-73971666D02*
X170365951Y-73924047D01*
X170365951Y-73924047D02*
X170413570Y-73876428D01*
X170413570Y-73876428D02*
X170461189Y-73781190D01*
X111801904Y-78502619D02*
X111801904Y-77693095D01*
X111801904Y-77693095D02*
X111754285Y-77597857D01*
X111754285Y-77597857D02*
X111706666Y-77550238D01*
X111706666Y-77550238D02*
X111611428Y-77502619D01*
X111611428Y-77502619D02*
X111420952Y-77502619D01*
X111420952Y-77502619D02*
X111325714Y-77550238D01*
X111325714Y-77550238D02*
X111278095Y-77597857D01*
X111278095Y-77597857D02*
X111230476Y-77693095D01*
X111230476Y-77693095D02*
X111230476Y-78502619D01*
X110801904Y-78407380D02*
X110754285Y-78455000D01*
X110754285Y-78455000D02*
X110659047Y-78502619D01*
X110659047Y-78502619D02*
X110420952Y-78502619D01*
X110420952Y-78502619D02*
X110325714Y-78455000D01*
X110325714Y-78455000D02*
X110278095Y-78407380D01*
X110278095Y-78407380D02*
X110230476Y-78312142D01*
X110230476Y-78312142D02*
X110230476Y-78216904D01*
X110230476Y-78216904D02*
X110278095Y-78074047D01*
X110278095Y-78074047D02*
X110849523Y-77502619D01*
X110849523Y-77502619D02*
X110230476Y-77502619D01*
X123952856Y-74452619D02*
X123286190Y-74452619D01*
X123286190Y-74452619D02*
X123714761Y-73452619D01*
X122476666Y-74119285D02*
X122476666Y-73452619D01*
X122714761Y-74500238D02*
X122952856Y-73785952D01*
X122952856Y-73785952D02*
X122333809Y-73785952D01*
X121476666Y-73452619D02*
X121952856Y-73452619D01*
X121952856Y-73452619D02*
X121952856Y-74452619D01*
X121190951Y-73500238D02*
X121048094Y-73452619D01*
X121048094Y-73452619D02*
X120809999Y-73452619D01*
X120809999Y-73452619D02*
X120714761Y-73500238D01*
X120714761Y-73500238D02*
X120667142Y-73547857D01*
X120667142Y-73547857D02*
X120619523Y-73643095D01*
X120619523Y-73643095D02*
X120619523Y-73738333D01*
X120619523Y-73738333D02*
X120667142Y-73833571D01*
X120667142Y-73833571D02*
X120714761Y-73881190D01*
X120714761Y-73881190D02*
X120809999Y-73928809D01*
X120809999Y-73928809D02*
X121000475Y-73976428D01*
X121000475Y-73976428D02*
X121095713Y-74024047D01*
X121095713Y-74024047D02*
X121143332Y-74071666D01*
X121143332Y-74071666D02*
X121190951Y-74166904D01*
X121190951Y-74166904D02*
X121190951Y-74262142D01*
X121190951Y-74262142D02*
X121143332Y-74357380D01*
X121143332Y-74357380D02*
X121095713Y-74405000D01*
X121095713Y-74405000D02*
X121000475Y-74452619D01*
X121000475Y-74452619D02*
X120762380Y-74452619D01*
X120762380Y-74452619D02*
X120619523Y-74405000D01*
X120000475Y-74452619D02*
X119905237Y-74452619D01*
X119905237Y-74452619D02*
X119809999Y-74405000D01*
X119809999Y-74405000D02*
X119762380Y-74357380D01*
X119762380Y-74357380D02*
X119714761Y-74262142D01*
X119714761Y-74262142D02*
X119667142Y-74071666D01*
X119667142Y-74071666D02*
X119667142Y-73833571D01*
X119667142Y-73833571D02*
X119714761Y-73643095D01*
X119714761Y-73643095D02*
X119762380Y-73547857D01*
X119762380Y-73547857D02*
X119809999Y-73500238D01*
X119809999Y-73500238D02*
X119905237Y-73452619D01*
X119905237Y-73452619D02*
X120000475Y-73452619D01*
X120000475Y-73452619D02*
X120095713Y-73500238D01*
X120095713Y-73500238D02*
X120143332Y-73547857D01*
X120143332Y-73547857D02*
X120190951Y-73643095D01*
X120190951Y-73643095D02*
X120238570Y-73833571D01*
X120238570Y-73833571D02*
X120238570Y-74071666D01*
X120238570Y-74071666D02*
X120190951Y-74262142D01*
X120190951Y-74262142D02*
X120143332Y-74357380D01*
X120143332Y-74357380D02*
X120095713Y-74405000D01*
X120095713Y-74405000D02*
X120000475Y-74452619D01*
X118809999Y-74119285D02*
X118809999Y-73452619D01*
X119048094Y-74500238D02*
X119286189Y-73785952D01*
X119286189Y-73785952D02*
X118667142Y-73785952D01*
X111781904Y-105962619D02*
X111781904Y-105153095D01*
X111781904Y-105153095D02*
X111734285Y-105057857D01*
X111734285Y-105057857D02*
X111686666Y-105010238D01*
X111686666Y-105010238D02*
X111591428Y-104962619D01*
X111591428Y-104962619D02*
X111400952Y-104962619D01*
X111400952Y-104962619D02*
X111305714Y-105010238D01*
X111305714Y-105010238D02*
X111258095Y-105057857D01*
X111258095Y-105057857D02*
X111210476Y-105153095D01*
X111210476Y-105153095D02*
X111210476Y-105962619D01*
X110305714Y-105629285D02*
X110305714Y-104962619D01*
X110543809Y-106010238D02*
X110781904Y-105295952D01*
X110781904Y-105295952D02*
X110162857Y-105295952D01*
X123877856Y-101642619D02*
X123211190Y-101642619D01*
X123211190Y-101642619D02*
X123639761Y-100642619D01*
X122401666Y-101309285D02*
X122401666Y-100642619D01*
X122639761Y-101690238D02*
X122877856Y-100975952D01*
X122877856Y-100975952D02*
X122258809Y-100975952D01*
X121401666Y-100642619D02*
X121877856Y-100642619D01*
X121877856Y-100642619D02*
X121877856Y-101642619D01*
X121115951Y-100690238D02*
X120973094Y-100642619D01*
X120973094Y-100642619D02*
X120734999Y-100642619D01*
X120734999Y-100642619D02*
X120639761Y-100690238D01*
X120639761Y-100690238D02*
X120592142Y-100737857D01*
X120592142Y-100737857D02*
X120544523Y-100833095D01*
X120544523Y-100833095D02*
X120544523Y-100928333D01*
X120544523Y-100928333D02*
X120592142Y-101023571D01*
X120592142Y-101023571D02*
X120639761Y-101071190D01*
X120639761Y-101071190D02*
X120734999Y-101118809D01*
X120734999Y-101118809D02*
X120925475Y-101166428D01*
X120925475Y-101166428D02*
X121020713Y-101214047D01*
X121020713Y-101214047D02*
X121068332Y-101261666D01*
X121068332Y-101261666D02*
X121115951Y-101356904D01*
X121115951Y-101356904D02*
X121115951Y-101452142D01*
X121115951Y-101452142D02*
X121068332Y-101547380D01*
X121068332Y-101547380D02*
X121020713Y-101595000D01*
X121020713Y-101595000D02*
X120925475Y-101642619D01*
X120925475Y-101642619D02*
X120687380Y-101642619D01*
X120687380Y-101642619D02*
X120544523Y-101595000D01*
X119592142Y-100642619D02*
X120163570Y-100642619D01*
X119877856Y-100642619D02*
X119877856Y-101642619D01*
X119877856Y-101642619D02*
X119973094Y-101499761D01*
X119973094Y-101499761D02*
X120068332Y-101404523D01*
X120068332Y-101404523D02*
X120163570Y-101356904D01*
X118734999Y-101309285D02*
X118734999Y-100642619D01*
X118973094Y-101690238D02*
X119211189Y-100975952D01*
X119211189Y-100975952D02*
X118592142Y-100975952D01*
X138551904Y-78572619D02*
X138551904Y-77763095D01*
X138551904Y-77763095D02*
X138504285Y-77667857D01*
X138504285Y-77667857D02*
X138456666Y-77620238D01*
X138456666Y-77620238D02*
X138361428Y-77572619D01*
X138361428Y-77572619D02*
X138170952Y-77572619D01*
X138170952Y-77572619D02*
X138075714Y-77620238D01*
X138075714Y-77620238D02*
X138028095Y-77667857D01*
X138028095Y-77667857D02*
X137980476Y-77763095D01*
X137980476Y-77763095D02*
X137980476Y-78572619D01*
X137028095Y-78572619D02*
X137504285Y-78572619D01*
X137504285Y-78572619D02*
X137551904Y-78096428D01*
X137551904Y-78096428D02*
X137504285Y-78144047D01*
X137504285Y-78144047D02*
X137409047Y-78191666D01*
X137409047Y-78191666D02*
X137170952Y-78191666D01*
X137170952Y-78191666D02*
X137075714Y-78144047D01*
X137075714Y-78144047D02*
X137028095Y-78096428D01*
X137028095Y-78096428D02*
X136980476Y-78001190D01*
X136980476Y-78001190D02*
X136980476Y-77763095D01*
X136980476Y-77763095D02*
X137028095Y-77667857D01*
X137028095Y-77667857D02*
X137075714Y-77620238D01*
X137075714Y-77620238D02*
X137170952Y-77572619D01*
X137170952Y-77572619D02*
X137409047Y-77572619D01*
X137409047Y-77572619D02*
X137504285Y-77620238D01*
X137504285Y-77620238D02*
X137551904Y-77667857D01*
X150777856Y-74372619D02*
X150111190Y-74372619D01*
X150111190Y-74372619D02*
X150539761Y-73372619D01*
X149301666Y-74039285D02*
X149301666Y-73372619D01*
X149539761Y-74420238D02*
X149777856Y-73705952D01*
X149777856Y-73705952D02*
X149158809Y-73705952D01*
X148301666Y-73372619D02*
X148777856Y-73372619D01*
X148777856Y-73372619D02*
X148777856Y-74372619D01*
X148015951Y-73420238D02*
X147873094Y-73372619D01*
X147873094Y-73372619D02*
X147634999Y-73372619D01*
X147634999Y-73372619D02*
X147539761Y-73420238D01*
X147539761Y-73420238D02*
X147492142Y-73467857D01*
X147492142Y-73467857D02*
X147444523Y-73563095D01*
X147444523Y-73563095D02*
X147444523Y-73658333D01*
X147444523Y-73658333D02*
X147492142Y-73753571D01*
X147492142Y-73753571D02*
X147539761Y-73801190D01*
X147539761Y-73801190D02*
X147634999Y-73848809D01*
X147634999Y-73848809D02*
X147825475Y-73896428D01*
X147825475Y-73896428D02*
X147920713Y-73944047D01*
X147920713Y-73944047D02*
X147968332Y-73991666D01*
X147968332Y-73991666D02*
X148015951Y-74086904D01*
X148015951Y-74086904D02*
X148015951Y-74182142D01*
X148015951Y-74182142D02*
X147968332Y-74277380D01*
X147968332Y-74277380D02*
X147920713Y-74325000D01*
X147920713Y-74325000D02*
X147825475Y-74372619D01*
X147825475Y-74372619D02*
X147587380Y-74372619D01*
X147587380Y-74372619D02*
X147444523Y-74325000D01*
X147111189Y-74372619D02*
X146444523Y-74372619D01*
X146444523Y-74372619D02*
X146873094Y-73372619D01*
X145634999Y-74039285D02*
X145634999Y-73372619D01*
X145873094Y-74420238D02*
X146111189Y-73705952D01*
X146111189Y-73705952D02*
X145492142Y-73705952D01*
X111761904Y-92252619D02*
X111761904Y-91443095D01*
X111761904Y-91443095D02*
X111714285Y-91347857D01*
X111714285Y-91347857D02*
X111666666Y-91300238D01*
X111666666Y-91300238D02*
X111571428Y-91252619D01*
X111571428Y-91252619D02*
X111380952Y-91252619D01*
X111380952Y-91252619D02*
X111285714Y-91300238D01*
X111285714Y-91300238D02*
X111238095Y-91347857D01*
X111238095Y-91347857D02*
X111190476Y-91443095D01*
X111190476Y-91443095D02*
X111190476Y-92252619D01*
X110809523Y-92252619D02*
X110142857Y-92252619D01*
X110142857Y-92252619D02*
X110571428Y-91252619D01*
X123857856Y-88252619D02*
X123191190Y-88252619D01*
X123191190Y-88252619D02*
X123619761Y-87252619D01*
X122381666Y-87919285D02*
X122381666Y-87252619D01*
X122619761Y-88300238D02*
X122857856Y-87585952D01*
X122857856Y-87585952D02*
X122238809Y-87585952D01*
X121381666Y-87252619D02*
X121857856Y-87252619D01*
X121857856Y-87252619D02*
X121857856Y-88252619D01*
X121095951Y-87300238D02*
X120953094Y-87252619D01*
X120953094Y-87252619D02*
X120714999Y-87252619D01*
X120714999Y-87252619D02*
X120619761Y-87300238D01*
X120619761Y-87300238D02*
X120572142Y-87347857D01*
X120572142Y-87347857D02*
X120524523Y-87443095D01*
X120524523Y-87443095D02*
X120524523Y-87538333D01*
X120524523Y-87538333D02*
X120572142Y-87633571D01*
X120572142Y-87633571D02*
X120619761Y-87681190D01*
X120619761Y-87681190D02*
X120714999Y-87728809D01*
X120714999Y-87728809D02*
X120905475Y-87776428D01*
X120905475Y-87776428D02*
X121000713Y-87824047D01*
X121000713Y-87824047D02*
X121048332Y-87871666D01*
X121048332Y-87871666D02*
X121095951Y-87966904D01*
X121095951Y-87966904D02*
X121095951Y-88062142D01*
X121095951Y-88062142D02*
X121048332Y-88157380D01*
X121048332Y-88157380D02*
X121000713Y-88205000D01*
X121000713Y-88205000D02*
X120905475Y-88252619D01*
X120905475Y-88252619D02*
X120667380Y-88252619D01*
X120667380Y-88252619D02*
X120524523Y-88205000D01*
X120191189Y-88252619D02*
X119524523Y-88252619D01*
X119524523Y-88252619D02*
X119953094Y-87252619D01*
X118714999Y-87919285D02*
X118714999Y-87252619D01*
X118953094Y-88300238D02*
X119191189Y-87585952D01*
X119191189Y-87585952D02*
X118572142Y-87585952D01*
X193161904Y-122572619D02*
X193161904Y-121763095D01*
X193161904Y-121763095D02*
X193114285Y-121667857D01*
X193114285Y-121667857D02*
X193066666Y-121620238D01*
X193066666Y-121620238D02*
X192971428Y-121572619D01*
X192971428Y-121572619D02*
X192780952Y-121572619D01*
X192780952Y-121572619D02*
X192685714Y-121620238D01*
X192685714Y-121620238D02*
X192638095Y-121667857D01*
X192638095Y-121667857D02*
X192590476Y-121763095D01*
X192590476Y-121763095D02*
X192590476Y-122572619D01*
X192066666Y-121572619D02*
X191876190Y-121572619D01*
X191876190Y-121572619D02*
X191780952Y-121620238D01*
X191780952Y-121620238D02*
X191733333Y-121667857D01*
X191733333Y-121667857D02*
X191638095Y-121810714D01*
X191638095Y-121810714D02*
X191590476Y-122001190D01*
X191590476Y-122001190D02*
X191590476Y-122382142D01*
X191590476Y-122382142D02*
X191638095Y-122477380D01*
X191638095Y-122477380D02*
X191685714Y-122525000D01*
X191685714Y-122525000D02*
X191780952Y-122572619D01*
X191780952Y-122572619D02*
X191971428Y-122572619D01*
X191971428Y-122572619D02*
X192066666Y-122525000D01*
X192066666Y-122525000D02*
X192114285Y-122477380D01*
X192114285Y-122477380D02*
X192161904Y-122382142D01*
X192161904Y-122382142D02*
X192161904Y-122144047D01*
X192161904Y-122144047D02*
X192114285Y-122048809D01*
X192114285Y-122048809D02*
X192066666Y-122001190D01*
X192066666Y-122001190D02*
X191971428Y-121953571D01*
X191971428Y-121953571D02*
X191780952Y-121953571D01*
X191780952Y-121953571D02*
X191685714Y-122001190D01*
X191685714Y-122001190D02*
X191638095Y-122048809D01*
X191638095Y-122048809D02*
X191590476Y-122144047D01*
X205734047Y-118372619D02*
X205067381Y-118372619D01*
X205067381Y-118372619D02*
X205495952Y-117372619D01*
X204257857Y-118039285D02*
X204257857Y-117372619D01*
X204495952Y-118420238D02*
X204734047Y-117705952D01*
X204734047Y-117705952D02*
X204115000Y-117705952D01*
X203257857Y-117372619D02*
X203734047Y-117372619D01*
X203734047Y-117372619D02*
X203734047Y-118372619D01*
X202972142Y-117420238D02*
X202829285Y-117372619D01*
X202829285Y-117372619D02*
X202591190Y-117372619D01*
X202591190Y-117372619D02*
X202495952Y-117420238D01*
X202495952Y-117420238D02*
X202448333Y-117467857D01*
X202448333Y-117467857D02*
X202400714Y-117563095D01*
X202400714Y-117563095D02*
X202400714Y-117658333D01*
X202400714Y-117658333D02*
X202448333Y-117753571D01*
X202448333Y-117753571D02*
X202495952Y-117801190D01*
X202495952Y-117801190D02*
X202591190Y-117848809D01*
X202591190Y-117848809D02*
X202781666Y-117896428D01*
X202781666Y-117896428D02*
X202876904Y-117944047D01*
X202876904Y-117944047D02*
X202924523Y-117991666D01*
X202924523Y-117991666D02*
X202972142Y-118086904D01*
X202972142Y-118086904D02*
X202972142Y-118182142D01*
X202972142Y-118182142D02*
X202924523Y-118277380D01*
X202924523Y-118277380D02*
X202876904Y-118325000D01*
X202876904Y-118325000D02*
X202781666Y-118372619D01*
X202781666Y-118372619D02*
X202543571Y-118372619D01*
X202543571Y-118372619D02*
X202400714Y-118325000D01*
X202019761Y-118277380D02*
X201972142Y-118325000D01*
X201972142Y-118325000D02*
X201876904Y-118372619D01*
X201876904Y-118372619D02*
X201638809Y-118372619D01*
X201638809Y-118372619D02*
X201543571Y-118325000D01*
X201543571Y-118325000D02*
X201495952Y-118277380D01*
X201495952Y-118277380D02*
X201448333Y-118182142D01*
X201448333Y-118182142D02*
X201448333Y-118086904D01*
X201448333Y-118086904D02*
X201495952Y-117944047D01*
X201495952Y-117944047D02*
X202067380Y-117372619D01*
X202067380Y-117372619D02*
X201448333Y-117372619D01*
X200591190Y-118039285D02*
X200591190Y-117372619D01*
X200829285Y-118420238D02*
X201067380Y-117705952D01*
X201067380Y-117705952D02*
X200448333Y-117705952D01*
X200114999Y-118277380D02*
X200067380Y-118325000D01*
X200067380Y-118325000D02*
X199972142Y-118372619D01*
X199972142Y-118372619D02*
X199734047Y-118372619D01*
X199734047Y-118372619D02*
X199638809Y-118325000D01*
X199638809Y-118325000D02*
X199591190Y-118277380D01*
X199591190Y-118277380D02*
X199543571Y-118182142D01*
X199543571Y-118182142D02*
X199543571Y-118086904D01*
X199543571Y-118086904D02*
X199591190Y-117944047D01*
X199591190Y-117944047D02*
X200162618Y-117372619D01*
X200162618Y-117372619D02*
X199543571Y-117372619D01*
X162020476Y-65592619D02*
X162353809Y-66068809D01*
X162591904Y-65592619D02*
X162591904Y-66592619D01*
X162591904Y-66592619D02*
X162210952Y-66592619D01*
X162210952Y-66592619D02*
X162115714Y-66545000D01*
X162115714Y-66545000D02*
X162068095Y-66497380D01*
X162068095Y-66497380D02*
X162020476Y-66402142D01*
X162020476Y-66402142D02*
X162020476Y-66259285D01*
X162020476Y-66259285D02*
X162068095Y-66164047D01*
X162068095Y-66164047D02*
X162115714Y-66116428D01*
X162115714Y-66116428D02*
X162210952Y-66068809D01*
X162210952Y-66068809D02*
X162591904Y-66068809D01*
X161591904Y-65592619D02*
X161591904Y-66592619D01*
X161591904Y-66592619D02*
X161020476Y-65592619D01*
X161020476Y-65592619D02*
X161020476Y-66592619D01*
X160020476Y-65592619D02*
X160591904Y-65592619D01*
X160306190Y-65592619D02*
X160306190Y-66592619D01*
X160306190Y-66592619D02*
X160401428Y-66449761D01*
X160401428Y-66449761D02*
X160496666Y-66354523D01*
X160496666Y-66354523D02*
X160591904Y-66306904D01*
X135666666Y-80882619D02*
X135999999Y-81358809D01*
X136238094Y-80882619D02*
X136238094Y-81882619D01*
X136238094Y-81882619D02*
X135857142Y-81882619D01*
X135857142Y-81882619D02*
X135761904Y-81835000D01*
X135761904Y-81835000D02*
X135714285Y-81787380D01*
X135714285Y-81787380D02*
X135666666Y-81692142D01*
X135666666Y-81692142D02*
X135666666Y-81549285D01*
X135666666Y-81549285D02*
X135714285Y-81454047D01*
X135714285Y-81454047D02*
X135761904Y-81406428D01*
X135761904Y-81406428D02*
X135857142Y-81358809D01*
X135857142Y-81358809D02*
X136238094Y-81358809D01*
X134809523Y-81549285D02*
X134809523Y-80882619D01*
X135047618Y-81930238D02*
X135285713Y-81215952D01*
X135285713Y-81215952D02*
X134666666Y-81215952D01*
X135739428Y-84871428D02*
X135206095Y-84871428D01*
X136044190Y-84680952D02*
X135472761Y-84490475D01*
X135472761Y-84490475D02*
X135472761Y-84985714D01*
X135206095Y-85290476D02*
X136006095Y-85290476D01*
X135206095Y-85747619D02*
X135663238Y-85404761D01*
X136006095Y-85747619D02*
X135548952Y-85290476D01*
X136006095Y-86014285D02*
X136006095Y-86547619D01*
X136006095Y-86547619D02*
X135206095Y-86204761D01*
X107626666Y-62892619D02*
X107959999Y-63368809D01*
X108198094Y-62892619D02*
X108198094Y-63892619D01*
X108198094Y-63892619D02*
X107817142Y-63892619D01*
X107817142Y-63892619D02*
X107721904Y-63845000D01*
X107721904Y-63845000D02*
X107674285Y-63797380D01*
X107674285Y-63797380D02*
X107626666Y-63702142D01*
X107626666Y-63702142D02*
X107626666Y-63559285D01*
X107626666Y-63559285D02*
X107674285Y-63464047D01*
X107674285Y-63464047D02*
X107721904Y-63416428D01*
X107721904Y-63416428D02*
X107817142Y-63368809D01*
X107817142Y-63368809D02*
X108198094Y-63368809D01*
X106674285Y-62892619D02*
X107245713Y-62892619D01*
X106959999Y-62892619D02*
X106959999Y-63892619D01*
X106959999Y-63892619D02*
X107055237Y-63749761D01*
X107055237Y-63749761D02*
X107150475Y-63654523D01*
X107150475Y-63654523D02*
X107245713Y-63606904D01*
X113271428Y-63256095D02*
X113652380Y-63256095D01*
X113652380Y-63256095D02*
X113690476Y-62875142D01*
X113690476Y-62875142D02*
X113652380Y-62913238D01*
X113652380Y-62913238D02*
X113576190Y-62951333D01*
X113576190Y-62951333D02*
X113385714Y-62951333D01*
X113385714Y-62951333D02*
X113309523Y-62913238D01*
X113309523Y-62913238D02*
X113271428Y-62875142D01*
X113271428Y-62875142D02*
X113233333Y-62798952D01*
X113233333Y-62798952D02*
X113233333Y-62608476D01*
X113233333Y-62608476D02*
X113271428Y-62532285D01*
X113271428Y-62532285D02*
X113309523Y-62494190D01*
X113309523Y-62494190D02*
X113385714Y-62456095D01*
X113385714Y-62456095D02*
X113576190Y-62456095D01*
X113576190Y-62456095D02*
X113652380Y-62494190D01*
X113652380Y-62494190D02*
X113690476Y-62532285D01*
X112547618Y-63256095D02*
X112699999Y-63256095D01*
X112699999Y-63256095D02*
X112776190Y-63218000D01*
X112776190Y-63218000D02*
X112814285Y-63179904D01*
X112814285Y-63179904D02*
X112890475Y-63065619D01*
X112890475Y-63065619D02*
X112928571Y-62913238D01*
X112928571Y-62913238D02*
X112928571Y-62608476D01*
X112928571Y-62608476D02*
X112890475Y-62532285D01*
X112890475Y-62532285D02*
X112852380Y-62494190D01*
X112852380Y-62494190D02*
X112776190Y-62456095D01*
X112776190Y-62456095D02*
X112623809Y-62456095D01*
X112623809Y-62456095D02*
X112547618Y-62494190D01*
X112547618Y-62494190D02*
X112509523Y-62532285D01*
X112509523Y-62532285D02*
X112471428Y-62608476D01*
X112471428Y-62608476D02*
X112471428Y-62798952D01*
X112471428Y-62798952D02*
X112509523Y-62875142D01*
X112509523Y-62875142D02*
X112547618Y-62913238D01*
X112547618Y-62913238D02*
X112623809Y-62951333D01*
X112623809Y-62951333D02*
X112776190Y-62951333D01*
X112776190Y-62951333D02*
X112852380Y-62913238D01*
X112852380Y-62913238D02*
X112890475Y-62875142D01*
X112890475Y-62875142D02*
X112928571Y-62798952D01*
X111976189Y-63256095D02*
X111899999Y-63256095D01*
X111899999Y-63256095D02*
X111823808Y-63218000D01*
X111823808Y-63218000D02*
X111785713Y-63179904D01*
X111785713Y-63179904D02*
X111747618Y-63103714D01*
X111747618Y-63103714D02*
X111709523Y-62951333D01*
X111709523Y-62951333D02*
X111709523Y-62760857D01*
X111709523Y-62760857D02*
X111747618Y-62608476D01*
X111747618Y-62608476D02*
X111785713Y-62532285D01*
X111785713Y-62532285D02*
X111823808Y-62494190D01*
X111823808Y-62494190D02*
X111899999Y-62456095D01*
X111899999Y-62456095D02*
X111976189Y-62456095D01*
X111976189Y-62456095D02*
X112052380Y-62494190D01*
X112052380Y-62494190D02*
X112090475Y-62532285D01*
X112090475Y-62532285D02*
X112128570Y-62608476D01*
X112128570Y-62608476D02*
X112166666Y-62760857D01*
X112166666Y-62760857D02*
X112166666Y-62951333D01*
X112166666Y-62951333D02*
X112128570Y-63103714D01*
X112128570Y-63103714D02*
X112090475Y-63179904D01*
X112090475Y-63179904D02*
X112052380Y-63218000D01*
X112052380Y-63218000D02*
X111976189Y-63256095D01*
X110909522Y-62456095D02*
X111176189Y-62837047D01*
X111366665Y-62456095D02*
X111366665Y-63256095D01*
X111366665Y-63256095D02*
X111061903Y-63256095D01*
X111061903Y-63256095D02*
X110985713Y-63218000D01*
X110985713Y-63218000D02*
X110947618Y-63179904D01*
X110947618Y-63179904D02*
X110909522Y-63103714D01*
X110909522Y-63103714D02*
X110909522Y-62989428D01*
X110909522Y-62989428D02*
X110947618Y-62913238D01*
X110947618Y-62913238D02*
X110985713Y-62875142D01*
X110985713Y-62875142D02*
X111061903Y-62837047D01*
X111061903Y-62837047D02*
X111366665Y-62837047D01*
X107606666Y-64952619D02*
X107939999Y-65428809D01*
X108178094Y-64952619D02*
X108178094Y-65952619D01*
X108178094Y-65952619D02*
X107797142Y-65952619D01*
X107797142Y-65952619D02*
X107701904Y-65905000D01*
X107701904Y-65905000D02*
X107654285Y-65857380D01*
X107654285Y-65857380D02*
X107606666Y-65762142D01*
X107606666Y-65762142D02*
X107606666Y-65619285D01*
X107606666Y-65619285D02*
X107654285Y-65524047D01*
X107654285Y-65524047D02*
X107701904Y-65476428D01*
X107701904Y-65476428D02*
X107797142Y-65428809D01*
X107797142Y-65428809D02*
X108178094Y-65428809D01*
X107225713Y-65857380D02*
X107178094Y-65905000D01*
X107178094Y-65905000D02*
X107082856Y-65952619D01*
X107082856Y-65952619D02*
X106844761Y-65952619D01*
X106844761Y-65952619D02*
X106749523Y-65905000D01*
X106749523Y-65905000D02*
X106701904Y-65857380D01*
X106701904Y-65857380D02*
X106654285Y-65762142D01*
X106654285Y-65762142D02*
X106654285Y-65666904D01*
X106654285Y-65666904D02*
X106701904Y-65524047D01*
X106701904Y-65524047D02*
X107273332Y-64952619D01*
X107273332Y-64952619D02*
X106654285Y-64952619D01*
X113241428Y-65756095D02*
X113622380Y-65756095D01*
X113622380Y-65756095D02*
X113660476Y-65375142D01*
X113660476Y-65375142D02*
X113622380Y-65413238D01*
X113622380Y-65413238D02*
X113546190Y-65451333D01*
X113546190Y-65451333D02*
X113355714Y-65451333D01*
X113355714Y-65451333D02*
X113279523Y-65413238D01*
X113279523Y-65413238D02*
X113241428Y-65375142D01*
X113241428Y-65375142D02*
X113203333Y-65298952D01*
X113203333Y-65298952D02*
X113203333Y-65108476D01*
X113203333Y-65108476D02*
X113241428Y-65032285D01*
X113241428Y-65032285D02*
X113279523Y-64994190D01*
X113279523Y-64994190D02*
X113355714Y-64956095D01*
X113355714Y-64956095D02*
X113546190Y-64956095D01*
X113546190Y-64956095D02*
X113622380Y-64994190D01*
X113622380Y-64994190D02*
X113660476Y-65032285D01*
X112517618Y-65756095D02*
X112669999Y-65756095D01*
X112669999Y-65756095D02*
X112746190Y-65718000D01*
X112746190Y-65718000D02*
X112784285Y-65679904D01*
X112784285Y-65679904D02*
X112860475Y-65565619D01*
X112860475Y-65565619D02*
X112898571Y-65413238D01*
X112898571Y-65413238D02*
X112898571Y-65108476D01*
X112898571Y-65108476D02*
X112860475Y-65032285D01*
X112860475Y-65032285D02*
X112822380Y-64994190D01*
X112822380Y-64994190D02*
X112746190Y-64956095D01*
X112746190Y-64956095D02*
X112593809Y-64956095D01*
X112593809Y-64956095D02*
X112517618Y-64994190D01*
X112517618Y-64994190D02*
X112479523Y-65032285D01*
X112479523Y-65032285D02*
X112441428Y-65108476D01*
X112441428Y-65108476D02*
X112441428Y-65298952D01*
X112441428Y-65298952D02*
X112479523Y-65375142D01*
X112479523Y-65375142D02*
X112517618Y-65413238D01*
X112517618Y-65413238D02*
X112593809Y-65451333D01*
X112593809Y-65451333D02*
X112746190Y-65451333D01*
X112746190Y-65451333D02*
X112822380Y-65413238D01*
X112822380Y-65413238D02*
X112860475Y-65375142D01*
X112860475Y-65375142D02*
X112898571Y-65298952D01*
X111946189Y-65756095D02*
X111869999Y-65756095D01*
X111869999Y-65756095D02*
X111793808Y-65718000D01*
X111793808Y-65718000D02*
X111755713Y-65679904D01*
X111755713Y-65679904D02*
X111717618Y-65603714D01*
X111717618Y-65603714D02*
X111679523Y-65451333D01*
X111679523Y-65451333D02*
X111679523Y-65260857D01*
X111679523Y-65260857D02*
X111717618Y-65108476D01*
X111717618Y-65108476D02*
X111755713Y-65032285D01*
X111755713Y-65032285D02*
X111793808Y-64994190D01*
X111793808Y-64994190D02*
X111869999Y-64956095D01*
X111869999Y-64956095D02*
X111946189Y-64956095D01*
X111946189Y-64956095D02*
X112022380Y-64994190D01*
X112022380Y-64994190D02*
X112060475Y-65032285D01*
X112060475Y-65032285D02*
X112098570Y-65108476D01*
X112098570Y-65108476D02*
X112136666Y-65260857D01*
X112136666Y-65260857D02*
X112136666Y-65451333D01*
X112136666Y-65451333D02*
X112098570Y-65603714D01*
X112098570Y-65603714D02*
X112060475Y-65679904D01*
X112060475Y-65679904D02*
X112022380Y-65718000D01*
X112022380Y-65718000D02*
X111946189Y-65756095D01*
X110879522Y-64956095D02*
X111146189Y-65337047D01*
X111336665Y-64956095D02*
X111336665Y-65756095D01*
X111336665Y-65756095D02*
X111031903Y-65756095D01*
X111031903Y-65756095D02*
X110955713Y-65718000D01*
X110955713Y-65718000D02*
X110917618Y-65679904D01*
X110917618Y-65679904D02*
X110879522Y-65603714D01*
X110879522Y-65603714D02*
X110879522Y-65489428D01*
X110879522Y-65489428D02*
X110917618Y-65413238D01*
X110917618Y-65413238D02*
X110955713Y-65375142D01*
X110955713Y-65375142D02*
X111031903Y-65337047D01*
X111031903Y-65337047D02*
X111336665Y-65337047D01*
X148666666Y-80132619D02*
X148999999Y-80608809D01*
X149238094Y-80132619D02*
X149238094Y-81132619D01*
X149238094Y-81132619D02*
X148857142Y-81132619D01*
X148857142Y-81132619D02*
X148761904Y-81085000D01*
X148761904Y-81085000D02*
X148714285Y-81037380D01*
X148714285Y-81037380D02*
X148666666Y-80942142D01*
X148666666Y-80942142D02*
X148666666Y-80799285D01*
X148666666Y-80799285D02*
X148714285Y-80704047D01*
X148714285Y-80704047D02*
X148761904Y-80656428D01*
X148761904Y-80656428D02*
X148857142Y-80608809D01*
X148857142Y-80608809D02*
X149238094Y-80608809D01*
X148333332Y-81132619D02*
X147714285Y-81132619D01*
X147714285Y-81132619D02*
X148047618Y-80751666D01*
X148047618Y-80751666D02*
X147904761Y-80751666D01*
X147904761Y-80751666D02*
X147809523Y-80704047D01*
X147809523Y-80704047D02*
X147761904Y-80656428D01*
X147761904Y-80656428D02*
X147714285Y-80561190D01*
X147714285Y-80561190D02*
X147714285Y-80323095D01*
X147714285Y-80323095D02*
X147761904Y-80227857D01*
X147761904Y-80227857D02*
X147809523Y-80180238D01*
X147809523Y-80180238D02*
X147904761Y-80132619D01*
X147904761Y-80132619D02*
X148190475Y-80132619D01*
X148190475Y-80132619D02*
X148285713Y-80180238D01*
X148285713Y-80180238D02*
X148333332Y-80227857D01*
X154171523Y-80989428D02*
X154171523Y-80456095D01*
X154361999Y-81294190D02*
X154552476Y-80722761D01*
X154552476Y-80722761D02*
X154057237Y-80722761D01*
X153828666Y-81256095D02*
X153295332Y-81256095D01*
X153295332Y-81256095D02*
X153638190Y-80456095D01*
X152838189Y-81256095D02*
X152761999Y-81256095D01*
X152761999Y-81256095D02*
X152685808Y-81218000D01*
X152685808Y-81218000D02*
X152647713Y-81179904D01*
X152647713Y-81179904D02*
X152609618Y-81103714D01*
X152609618Y-81103714D02*
X152571523Y-80951333D01*
X152571523Y-80951333D02*
X152571523Y-80760857D01*
X152571523Y-80760857D02*
X152609618Y-80608476D01*
X152609618Y-80608476D02*
X152647713Y-80532285D01*
X152647713Y-80532285D02*
X152685808Y-80494190D01*
X152685808Y-80494190D02*
X152761999Y-80456095D01*
X152761999Y-80456095D02*
X152838189Y-80456095D01*
X152838189Y-80456095D02*
X152914380Y-80494190D01*
X152914380Y-80494190D02*
X152952475Y-80532285D01*
X152952475Y-80532285D02*
X152990570Y-80608476D01*
X152990570Y-80608476D02*
X153028666Y-80760857D01*
X153028666Y-80760857D02*
X153028666Y-80951333D01*
X153028666Y-80951333D02*
X152990570Y-81103714D01*
X152990570Y-81103714D02*
X152952475Y-81179904D01*
X152952475Y-81179904D02*
X152914380Y-81218000D01*
X152914380Y-81218000D02*
X152838189Y-81256095D01*
X151771522Y-80456095D02*
X152038189Y-80837047D01*
X152228665Y-80456095D02*
X152228665Y-81256095D01*
X152228665Y-81256095D02*
X151923903Y-81256095D01*
X151923903Y-81256095D02*
X151847713Y-81218000D01*
X151847713Y-81218000D02*
X151809618Y-81179904D01*
X151809618Y-81179904D02*
X151771522Y-81103714D01*
X151771522Y-81103714D02*
X151771522Y-80989428D01*
X151771522Y-80989428D02*
X151809618Y-80913238D01*
X151809618Y-80913238D02*
X151847713Y-80875142D01*
X151847713Y-80875142D02*
X151923903Y-80837047D01*
X151923903Y-80837047D02*
X152228665Y-80837047D01*
X122192857Y-65957857D02*
X122240476Y-65910238D01*
X122240476Y-65910238D02*
X122383333Y-65862619D01*
X122383333Y-65862619D02*
X122478571Y-65862619D01*
X122478571Y-65862619D02*
X122621428Y-65910238D01*
X122621428Y-65910238D02*
X122716666Y-66005476D01*
X122716666Y-66005476D02*
X122764285Y-66100714D01*
X122764285Y-66100714D02*
X122811904Y-66291190D01*
X122811904Y-66291190D02*
X122811904Y-66434047D01*
X122811904Y-66434047D02*
X122764285Y-66624523D01*
X122764285Y-66624523D02*
X122716666Y-66719761D01*
X122716666Y-66719761D02*
X122621428Y-66815000D01*
X122621428Y-66815000D02*
X122478571Y-66862619D01*
X122478571Y-66862619D02*
X122383333Y-66862619D01*
X122383333Y-66862619D02*
X122240476Y-66815000D01*
X122240476Y-66815000D02*
X122192857Y-66767380D01*
X121240476Y-65862619D02*
X121811904Y-65862619D01*
X121526190Y-65862619D02*
X121526190Y-66862619D01*
X121526190Y-66862619D02*
X121621428Y-66719761D01*
X121621428Y-66719761D02*
X121716666Y-66624523D01*
X121716666Y-66624523D02*
X121811904Y-66576904D01*
X120621428Y-66862619D02*
X120526190Y-66862619D01*
X120526190Y-66862619D02*
X120430952Y-66815000D01*
X120430952Y-66815000D02*
X120383333Y-66767380D01*
X120383333Y-66767380D02*
X120335714Y-66672142D01*
X120335714Y-66672142D02*
X120288095Y-66481666D01*
X120288095Y-66481666D02*
X120288095Y-66243571D01*
X120288095Y-66243571D02*
X120335714Y-66053095D01*
X120335714Y-66053095D02*
X120383333Y-65957857D01*
X120383333Y-65957857D02*
X120430952Y-65910238D01*
X120430952Y-65910238D02*
X120526190Y-65862619D01*
X120526190Y-65862619D02*
X120621428Y-65862619D01*
X120621428Y-65862619D02*
X120716666Y-65910238D01*
X120716666Y-65910238D02*
X120764285Y-65957857D01*
X120764285Y-65957857D02*
X120811904Y-66053095D01*
X120811904Y-66053095D02*
X120859523Y-66243571D01*
X120859523Y-66243571D02*
X120859523Y-66481666D01*
X120859523Y-66481666D02*
X120811904Y-66672142D01*
X120811904Y-66672142D02*
X120764285Y-66767380D01*
X120764285Y-66767380D02*
X120716666Y-66815000D01*
X120716666Y-66815000D02*
X120621428Y-66862619D01*
X132096666Y-66047857D02*
X132144285Y-66000238D01*
X132144285Y-66000238D02*
X132287142Y-65952619D01*
X132287142Y-65952619D02*
X132382380Y-65952619D01*
X132382380Y-65952619D02*
X132525237Y-66000238D01*
X132525237Y-66000238D02*
X132620475Y-66095476D01*
X132620475Y-66095476D02*
X132668094Y-66190714D01*
X132668094Y-66190714D02*
X132715713Y-66381190D01*
X132715713Y-66381190D02*
X132715713Y-66524047D01*
X132715713Y-66524047D02*
X132668094Y-66714523D01*
X132668094Y-66714523D02*
X132620475Y-66809761D01*
X132620475Y-66809761D02*
X132525237Y-66905000D01*
X132525237Y-66905000D02*
X132382380Y-66952619D01*
X132382380Y-66952619D02*
X132287142Y-66952619D01*
X132287142Y-66952619D02*
X132144285Y-66905000D01*
X132144285Y-66905000D02*
X132096666Y-66857380D01*
X131620475Y-65952619D02*
X131429999Y-65952619D01*
X131429999Y-65952619D02*
X131334761Y-66000238D01*
X131334761Y-66000238D02*
X131287142Y-66047857D01*
X131287142Y-66047857D02*
X131191904Y-66190714D01*
X131191904Y-66190714D02*
X131144285Y-66381190D01*
X131144285Y-66381190D02*
X131144285Y-66762142D01*
X131144285Y-66762142D02*
X131191904Y-66857380D01*
X131191904Y-66857380D02*
X131239523Y-66905000D01*
X131239523Y-66905000D02*
X131334761Y-66952619D01*
X131334761Y-66952619D02*
X131525237Y-66952619D01*
X131525237Y-66952619D02*
X131620475Y-66905000D01*
X131620475Y-66905000D02*
X131668094Y-66857380D01*
X131668094Y-66857380D02*
X131715713Y-66762142D01*
X131715713Y-66762142D02*
X131715713Y-66524047D01*
X131715713Y-66524047D02*
X131668094Y-66428809D01*
X131668094Y-66428809D02*
X131620475Y-66381190D01*
X131620475Y-66381190D02*
X131525237Y-66333571D01*
X131525237Y-66333571D02*
X131334761Y-66333571D01*
X131334761Y-66333571D02*
X131239523Y-66381190D01*
X131239523Y-66381190D02*
X131191904Y-66428809D01*
X131191904Y-66428809D02*
X131144285Y-66524047D01*
X161756666Y-69487857D02*
X161804285Y-69440238D01*
X161804285Y-69440238D02*
X161947142Y-69392619D01*
X161947142Y-69392619D02*
X162042380Y-69392619D01*
X162042380Y-69392619D02*
X162185237Y-69440238D01*
X162185237Y-69440238D02*
X162280475Y-69535476D01*
X162280475Y-69535476D02*
X162328094Y-69630714D01*
X162328094Y-69630714D02*
X162375713Y-69821190D01*
X162375713Y-69821190D02*
X162375713Y-69964047D01*
X162375713Y-69964047D02*
X162328094Y-70154523D01*
X162328094Y-70154523D02*
X162280475Y-70249761D01*
X162280475Y-70249761D02*
X162185237Y-70345000D01*
X162185237Y-70345000D02*
X162042380Y-70392619D01*
X162042380Y-70392619D02*
X161947142Y-70392619D01*
X161947142Y-70392619D02*
X161804285Y-70345000D01*
X161804285Y-70345000D02*
X161756666Y-70297380D01*
X160804285Y-69392619D02*
X161375713Y-69392619D01*
X161089999Y-69392619D02*
X161089999Y-70392619D01*
X161089999Y-70392619D02*
X161185237Y-70249761D01*
X161185237Y-70249761D02*
X161280475Y-70154523D01*
X161280475Y-70154523D02*
X161375713Y-70106904D01*
X110416666Y-69477857D02*
X110464285Y-69430238D01*
X110464285Y-69430238D02*
X110607142Y-69382619D01*
X110607142Y-69382619D02*
X110702380Y-69382619D01*
X110702380Y-69382619D02*
X110845237Y-69430238D01*
X110845237Y-69430238D02*
X110940475Y-69525476D01*
X110940475Y-69525476D02*
X110988094Y-69620714D01*
X110988094Y-69620714D02*
X111035713Y-69811190D01*
X111035713Y-69811190D02*
X111035713Y-69954047D01*
X111035713Y-69954047D02*
X110988094Y-70144523D01*
X110988094Y-70144523D02*
X110940475Y-70239761D01*
X110940475Y-70239761D02*
X110845237Y-70335000D01*
X110845237Y-70335000D02*
X110702380Y-70382619D01*
X110702380Y-70382619D02*
X110607142Y-70382619D01*
X110607142Y-70382619D02*
X110464285Y-70335000D01*
X110464285Y-70335000D02*
X110416666Y-70287380D01*
X110035713Y-70287380D02*
X109988094Y-70335000D01*
X109988094Y-70335000D02*
X109892856Y-70382619D01*
X109892856Y-70382619D02*
X109654761Y-70382619D01*
X109654761Y-70382619D02*
X109559523Y-70335000D01*
X109559523Y-70335000D02*
X109511904Y-70287380D01*
X109511904Y-70287380D02*
X109464285Y-70192142D01*
X109464285Y-70192142D02*
X109464285Y-70096904D01*
X109464285Y-70096904D02*
X109511904Y-69954047D01*
X109511904Y-69954047D02*
X110083332Y-69382619D01*
X110083332Y-69382619D02*
X109464285Y-69382619D01*
X138298666Y-105655857D02*
X138346285Y-105608238D01*
X138346285Y-105608238D02*
X138489142Y-105560619D01*
X138489142Y-105560619D02*
X138584380Y-105560619D01*
X138584380Y-105560619D02*
X138727237Y-105608238D01*
X138727237Y-105608238D02*
X138822475Y-105703476D01*
X138822475Y-105703476D02*
X138870094Y-105798714D01*
X138870094Y-105798714D02*
X138917713Y-105989190D01*
X138917713Y-105989190D02*
X138917713Y-106132047D01*
X138917713Y-106132047D02*
X138870094Y-106322523D01*
X138870094Y-106322523D02*
X138822475Y-106417761D01*
X138822475Y-106417761D02*
X138727237Y-106513000D01*
X138727237Y-106513000D02*
X138584380Y-106560619D01*
X138584380Y-106560619D02*
X138489142Y-106560619D01*
X138489142Y-106560619D02*
X138346285Y-106513000D01*
X138346285Y-106513000D02*
X138298666Y-106465380D01*
X137965332Y-106560619D02*
X137346285Y-106560619D01*
X137346285Y-106560619D02*
X137679618Y-106179666D01*
X137679618Y-106179666D02*
X137536761Y-106179666D01*
X137536761Y-106179666D02*
X137441523Y-106132047D01*
X137441523Y-106132047D02*
X137393904Y-106084428D01*
X137393904Y-106084428D02*
X137346285Y-105989190D01*
X137346285Y-105989190D02*
X137346285Y-105751095D01*
X137346285Y-105751095D02*
X137393904Y-105655857D01*
X137393904Y-105655857D02*
X137441523Y-105608238D01*
X137441523Y-105608238D02*
X137536761Y-105560619D01*
X137536761Y-105560619D02*
X137822475Y-105560619D01*
X137822475Y-105560619D02*
X137917713Y-105608238D01*
X137917713Y-105608238D02*
X137965332Y-105655857D01*
X110316666Y-96707857D02*
X110364285Y-96660238D01*
X110364285Y-96660238D02*
X110507142Y-96612619D01*
X110507142Y-96612619D02*
X110602380Y-96612619D01*
X110602380Y-96612619D02*
X110745237Y-96660238D01*
X110745237Y-96660238D02*
X110840475Y-96755476D01*
X110840475Y-96755476D02*
X110888094Y-96850714D01*
X110888094Y-96850714D02*
X110935713Y-97041190D01*
X110935713Y-97041190D02*
X110935713Y-97184047D01*
X110935713Y-97184047D02*
X110888094Y-97374523D01*
X110888094Y-97374523D02*
X110840475Y-97469761D01*
X110840475Y-97469761D02*
X110745237Y-97565000D01*
X110745237Y-97565000D02*
X110602380Y-97612619D01*
X110602380Y-97612619D02*
X110507142Y-97612619D01*
X110507142Y-97612619D02*
X110364285Y-97565000D01*
X110364285Y-97565000D02*
X110316666Y-97517380D01*
X109411904Y-97612619D02*
X109888094Y-97612619D01*
X109888094Y-97612619D02*
X109935713Y-97136428D01*
X109935713Y-97136428D02*
X109888094Y-97184047D01*
X109888094Y-97184047D02*
X109792856Y-97231666D01*
X109792856Y-97231666D02*
X109554761Y-97231666D01*
X109554761Y-97231666D02*
X109459523Y-97184047D01*
X109459523Y-97184047D02*
X109411904Y-97136428D01*
X109411904Y-97136428D02*
X109364285Y-97041190D01*
X109364285Y-97041190D02*
X109364285Y-96803095D01*
X109364285Y-96803095D02*
X109411904Y-96707857D01*
X109411904Y-96707857D02*
X109459523Y-96660238D01*
X109459523Y-96660238D02*
X109554761Y-96612619D01*
X109554761Y-96612619D02*
X109792856Y-96612619D01*
X109792856Y-96612619D02*
X109888094Y-96660238D01*
X109888094Y-96660238D02*
X109935713Y-96707857D01*
X136986666Y-69617857D02*
X137034285Y-69570238D01*
X137034285Y-69570238D02*
X137177142Y-69522619D01*
X137177142Y-69522619D02*
X137272380Y-69522619D01*
X137272380Y-69522619D02*
X137415237Y-69570238D01*
X137415237Y-69570238D02*
X137510475Y-69665476D01*
X137510475Y-69665476D02*
X137558094Y-69760714D01*
X137558094Y-69760714D02*
X137605713Y-69951190D01*
X137605713Y-69951190D02*
X137605713Y-70094047D01*
X137605713Y-70094047D02*
X137558094Y-70284523D01*
X137558094Y-70284523D02*
X137510475Y-70379761D01*
X137510475Y-70379761D02*
X137415237Y-70475000D01*
X137415237Y-70475000D02*
X137272380Y-70522619D01*
X137272380Y-70522619D02*
X137177142Y-70522619D01*
X137177142Y-70522619D02*
X137034285Y-70475000D01*
X137034285Y-70475000D02*
X136986666Y-70427380D01*
X136129523Y-70522619D02*
X136319999Y-70522619D01*
X136319999Y-70522619D02*
X136415237Y-70475000D01*
X136415237Y-70475000D02*
X136462856Y-70427380D01*
X136462856Y-70427380D02*
X136558094Y-70284523D01*
X136558094Y-70284523D02*
X136605713Y-70094047D01*
X136605713Y-70094047D02*
X136605713Y-69713095D01*
X136605713Y-69713095D02*
X136558094Y-69617857D01*
X136558094Y-69617857D02*
X136510475Y-69570238D01*
X136510475Y-69570238D02*
X136415237Y-69522619D01*
X136415237Y-69522619D02*
X136224761Y-69522619D01*
X136224761Y-69522619D02*
X136129523Y-69570238D01*
X136129523Y-69570238D02*
X136081904Y-69617857D01*
X136081904Y-69617857D02*
X136034285Y-69713095D01*
X136034285Y-69713095D02*
X136034285Y-69951190D01*
X136034285Y-69951190D02*
X136081904Y-70046428D01*
X136081904Y-70046428D02*
X136129523Y-70094047D01*
X136129523Y-70094047D02*
X136224761Y-70141666D01*
X136224761Y-70141666D02*
X136415237Y-70141666D01*
X136415237Y-70141666D02*
X136510475Y-70094047D01*
X136510475Y-70094047D02*
X136558094Y-70046428D01*
X136558094Y-70046428D02*
X136605713Y-69951190D01*
X110402666Y-83477857D02*
X110450285Y-83430238D01*
X110450285Y-83430238D02*
X110593142Y-83382619D01*
X110593142Y-83382619D02*
X110688380Y-83382619D01*
X110688380Y-83382619D02*
X110831237Y-83430238D01*
X110831237Y-83430238D02*
X110926475Y-83525476D01*
X110926475Y-83525476D02*
X110974094Y-83620714D01*
X110974094Y-83620714D02*
X111021713Y-83811190D01*
X111021713Y-83811190D02*
X111021713Y-83954047D01*
X111021713Y-83954047D02*
X110974094Y-84144523D01*
X110974094Y-84144523D02*
X110926475Y-84239761D01*
X110926475Y-84239761D02*
X110831237Y-84335000D01*
X110831237Y-84335000D02*
X110688380Y-84382619D01*
X110688380Y-84382619D02*
X110593142Y-84382619D01*
X110593142Y-84382619D02*
X110450285Y-84335000D01*
X110450285Y-84335000D02*
X110402666Y-84287380D01*
X110069332Y-84382619D02*
X109402666Y-84382619D01*
X109402666Y-84382619D02*
X109831237Y-83382619D01*
X180008666Y-90361857D02*
X180056285Y-90314238D01*
X180056285Y-90314238D02*
X180199142Y-90266619D01*
X180199142Y-90266619D02*
X180294380Y-90266619D01*
X180294380Y-90266619D02*
X180437237Y-90314238D01*
X180437237Y-90314238D02*
X180532475Y-90409476D01*
X180532475Y-90409476D02*
X180580094Y-90504714D01*
X180580094Y-90504714D02*
X180627713Y-90695190D01*
X180627713Y-90695190D02*
X180627713Y-90838047D01*
X180627713Y-90838047D02*
X180580094Y-91028523D01*
X180580094Y-91028523D02*
X180532475Y-91123761D01*
X180532475Y-91123761D02*
X180437237Y-91219000D01*
X180437237Y-91219000D02*
X180294380Y-91266619D01*
X180294380Y-91266619D02*
X180199142Y-91266619D01*
X180199142Y-91266619D02*
X180056285Y-91219000D01*
X180056285Y-91219000D02*
X180008666Y-91171380D01*
X179437237Y-90838047D02*
X179532475Y-90885666D01*
X179532475Y-90885666D02*
X179580094Y-90933285D01*
X179580094Y-90933285D02*
X179627713Y-91028523D01*
X179627713Y-91028523D02*
X179627713Y-91076142D01*
X179627713Y-91076142D02*
X179580094Y-91171380D01*
X179580094Y-91171380D02*
X179532475Y-91219000D01*
X179532475Y-91219000D02*
X179437237Y-91266619D01*
X179437237Y-91266619D02*
X179246761Y-91266619D01*
X179246761Y-91266619D02*
X179151523Y-91219000D01*
X179151523Y-91219000D02*
X179103904Y-91171380D01*
X179103904Y-91171380D02*
X179056285Y-91076142D01*
X179056285Y-91076142D02*
X179056285Y-91028523D01*
X179056285Y-91028523D02*
X179103904Y-90933285D01*
X179103904Y-90933285D02*
X179151523Y-90885666D01*
X179151523Y-90885666D02*
X179246761Y-90838047D01*
X179246761Y-90838047D02*
X179437237Y-90838047D01*
X179437237Y-90838047D02*
X179532475Y-90790428D01*
X179532475Y-90790428D02*
X179580094Y-90742809D01*
X179580094Y-90742809D02*
X179627713Y-90647571D01*
X179627713Y-90647571D02*
X179627713Y-90457095D01*
X179627713Y-90457095D02*
X179580094Y-90361857D01*
X179580094Y-90361857D02*
X179532475Y-90314238D01*
X179532475Y-90314238D02*
X179437237Y-90266619D01*
X179437237Y-90266619D02*
X179246761Y-90266619D01*
X179246761Y-90266619D02*
X179151523Y-90314238D01*
X179151523Y-90314238D02*
X179103904Y-90361857D01*
X179103904Y-90361857D02*
X179056285Y-90457095D01*
X179056285Y-90457095D02*
X179056285Y-90647571D01*
X179056285Y-90647571D02*
X179103904Y-90742809D01*
X179103904Y-90742809D02*
X179151523Y-90790428D01*
X179151523Y-90790428D02*
X179246761Y-90838047D01*
X107392857Y-103727857D02*
X107440476Y-103680238D01*
X107440476Y-103680238D02*
X107583333Y-103632619D01*
X107583333Y-103632619D02*
X107678571Y-103632619D01*
X107678571Y-103632619D02*
X107821428Y-103680238D01*
X107821428Y-103680238D02*
X107916666Y-103775476D01*
X107916666Y-103775476D02*
X107964285Y-103870714D01*
X107964285Y-103870714D02*
X108011904Y-104061190D01*
X108011904Y-104061190D02*
X108011904Y-104204047D01*
X108011904Y-104204047D02*
X107964285Y-104394523D01*
X107964285Y-104394523D02*
X107916666Y-104489761D01*
X107916666Y-104489761D02*
X107821428Y-104585000D01*
X107821428Y-104585000D02*
X107678571Y-104632619D01*
X107678571Y-104632619D02*
X107583333Y-104632619D01*
X107583333Y-104632619D02*
X107440476Y-104585000D01*
X107440476Y-104585000D02*
X107392857Y-104537380D01*
X106440476Y-103632619D02*
X107011904Y-103632619D01*
X106726190Y-103632619D02*
X106726190Y-104632619D01*
X106726190Y-104632619D02*
X106821428Y-104489761D01*
X106821428Y-104489761D02*
X106916666Y-104394523D01*
X106916666Y-104394523D02*
X107011904Y-104346904D01*
X106059523Y-104537380D02*
X106011904Y-104585000D01*
X106011904Y-104585000D02*
X105916666Y-104632619D01*
X105916666Y-104632619D02*
X105678571Y-104632619D01*
X105678571Y-104632619D02*
X105583333Y-104585000D01*
X105583333Y-104585000D02*
X105535714Y-104537380D01*
X105535714Y-104537380D02*
X105488095Y-104442142D01*
X105488095Y-104442142D02*
X105488095Y-104346904D01*
X105488095Y-104346904D02*
X105535714Y-104204047D01*
X105535714Y-104204047D02*
X106107142Y-103632619D01*
X106107142Y-103632619D02*
X105488095Y-103632619D01*
X165392857Y-107727857D02*
X165440476Y-107680238D01*
X165440476Y-107680238D02*
X165583333Y-107632619D01*
X165583333Y-107632619D02*
X165678571Y-107632619D01*
X165678571Y-107632619D02*
X165821428Y-107680238D01*
X165821428Y-107680238D02*
X165916666Y-107775476D01*
X165916666Y-107775476D02*
X165964285Y-107870714D01*
X165964285Y-107870714D02*
X166011904Y-108061190D01*
X166011904Y-108061190D02*
X166011904Y-108204047D01*
X166011904Y-108204047D02*
X165964285Y-108394523D01*
X165964285Y-108394523D02*
X165916666Y-108489761D01*
X165916666Y-108489761D02*
X165821428Y-108585000D01*
X165821428Y-108585000D02*
X165678571Y-108632619D01*
X165678571Y-108632619D02*
X165583333Y-108632619D01*
X165583333Y-108632619D02*
X165440476Y-108585000D01*
X165440476Y-108585000D02*
X165392857Y-108537380D01*
X164440476Y-107632619D02*
X165011904Y-107632619D01*
X164726190Y-107632619D02*
X164726190Y-108632619D01*
X164726190Y-108632619D02*
X164821428Y-108489761D01*
X164821428Y-108489761D02*
X164916666Y-108394523D01*
X164916666Y-108394523D02*
X165011904Y-108346904D01*
X163488095Y-107632619D02*
X164059523Y-107632619D01*
X163773809Y-107632619D02*
X163773809Y-108632619D01*
X163773809Y-108632619D02*
X163869047Y-108489761D01*
X163869047Y-108489761D02*
X163964285Y-108394523D01*
X163964285Y-108394523D02*
X164059523Y-108346904D01*
X192162857Y-113587857D02*
X192210476Y-113540238D01*
X192210476Y-113540238D02*
X192353333Y-113492619D01*
X192353333Y-113492619D02*
X192448571Y-113492619D01*
X192448571Y-113492619D02*
X192591428Y-113540238D01*
X192591428Y-113540238D02*
X192686666Y-113635476D01*
X192686666Y-113635476D02*
X192734285Y-113730714D01*
X192734285Y-113730714D02*
X192781904Y-113921190D01*
X192781904Y-113921190D02*
X192781904Y-114064047D01*
X192781904Y-114064047D02*
X192734285Y-114254523D01*
X192734285Y-114254523D02*
X192686666Y-114349761D01*
X192686666Y-114349761D02*
X192591428Y-114445000D01*
X192591428Y-114445000D02*
X192448571Y-114492619D01*
X192448571Y-114492619D02*
X192353333Y-114492619D01*
X192353333Y-114492619D02*
X192210476Y-114445000D01*
X192210476Y-114445000D02*
X192162857Y-114397380D01*
X191210476Y-113492619D02*
X191781904Y-113492619D01*
X191496190Y-113492619D02*
X191496190Y-114492619D01*
X191496190Y-114492619D02*
X191591428Y-114349761D01*
X191591428Y-114349761D02*
X191686666Y-114254523D01*
X191686666Y-114254523D02*
X191781904Y-114206904D01*
X190353333Y-114492619D02*
X190543809Y-114492619D01*
X190543809Y-114492619D02*
X190639047Y-114445000D01*
X190639047Y-114445000D02*
X190686666Y-114397380D01*
X190686666Y-114397380D02*
X190781904Y-114254523D01*
X190781904Y-114254523D02*
X190829523Y-114064047D01*
X190829523Y-114064047D02*
X190829523Y-113683095D01*
X190829523Y-113683095D02*
X190781904Y-113587857D01*
X190781904Y-113587857D02*
X190734285Y-113540238D01*
X190734285Y-113540238D02*
X190639047Y-113492619D01*
X190639047Y-113492619D02*
X190448571Y-113492619D01*
X190448571Y-113492619D02*
X190353333Y-113540238D01*
X190353333Y-113540238D02*
X190305714Y-113587857D01*
X190305714Y-113587857D02*
X190258095Y-113683095D01*
X190258095Y-113683095D02*
X190258095Y-113921190D01*
X190258095Y-113921190D02*
X190305714Y-114016428D01*
X190305714Y-114016428D02*
X190353333Y-114064047D01*
X190353333Y-114064047D02*
X190448571Y-114111666D01*
X190448571Y-114111666D02*
X190639047Y-114111666D01*
X190639047Y-114111666D02*
X190734285Y-114064047D01*
X190734285Y-114064047D02*
X190781904Y-114016428D01*
X190781904Y-114016428D02*
X190829523Y-113921190D01*
X189364857Y-69577857D02*
X189412476Y-69530238D01*
X189412476Y-69530238D02*
X189555333Y-69482619D01*
X189555333Y-69482619D02*
X189650571Y-69482619D01*
X189650571Y-69482619D02*
X189793428Y-69530238D01*
X189793428Y-69530238D02*
X189888666Y-69625476D01*
X189888666Y-69625476D02*
X189936285Y-69720714D01*
X189936285Y-69720714D02*
X189983904Y-69911190D01*
X189983904Y-69911190D02*
X189983904Y-70054047D01*
X189983904Y-70054047D02*
X189936285Y-70244523D01*
X189936285Y-70244523D02*
X189888666Y-70339761D01*
X189888666Y-70339761D02*
X189793428Y-70435000D01*
X189793428Y-70435000D02*
X189650571Y-70482619D01*
X189650571Y-70482619D02*
X189555333Y-70482619D01*
X189555333Y-70482619D02*
X189412476Y-70435000D01*
X189412476Y-70435000D02*
X189364857Y-70387380D01*
X188412476Y-69482619D02*
X188983904Y-69482619D01*
X188698190Y-69482619D02*
X188698190Y-70482619D01*
X188698190Y-70482619D02*
X188793428Y-70339761D01*
X188793428Y-70339761D02*
X188888666Y-70244523D01*
X188888666Y-70244523D02*
X188983904Y-70196904D01*
X187507714Y-70482619D02*
X187983904Y-70482619D01*
X187983904Y-70482619D02*
X188031523Y-70006428D01*
X188031523Y-70006428D02*
X187983904Y-70054047D01*
X187983904Y-70054047D02*
X187888666Y-70101666D01*
X187888666Y-70101666D02*
X187650571Y-70101666D01*
X187650571Y-70101666D02*
X187555333Y-70054047D01*
X187555333Y-70054047D02*
X187507714Y-70006428D01*
X187507714Y-70006428D02*
X187460095Y-69911190D01*
X187460095Y-69911190D02*
X187460095Y-69673095D01*
X187460095Y-69673095D02*
X187507714Y-69577857D01*
X187507714Y-69577857D02*
X187555333Y-69530238D01*
X187555333Y-69530238D02*
X187650571Y-69482619D01*
X187650571Y-69482619D02*
X187888666Y-69482619D01*
X187888666Y-69482619D02*
X187983904Y-69530238D01*
X187983904Y-69530238D02*
X188031523Y-69577857D01*
X189618857Y-84309857D02*
X189666476Y-84262238D01*
X189666476Y-84262238D02*
X189809333Y-84214619D01*
X189809333Y-84214619D02*
X189904571Y-84214619D01*
X189904571Y-84214619D02*
X190047428Y-84262238D01*
X190047428Y-84262238D02*
X190142666Y-84357476D01*
X190142666Y-84357476D02*
X190190285Y-84452714D01*
X190190285Y-84452714D02*
X190237904Y-84643190D01*
X190237904Y-84643190D02*
X190237904Y-84786047D01*
X190237904Y-84786047D02*
X190190285Y-84976523D01*
X190190285Y-84976523D02*
X190142666Y-85071761D01*
X190142666Y-85071761D02*
X190047428Y-85167000D01*
X190047428Y-85167000D02*
X189904571Y-85214619D01*
X189904571Y-85214619D02*
X189809333Y-85214619D01*
X189809333Y-85214619D02*
X189666476Y-85167000D01*
X189666476Y-85167000D02*
X189618857Y-85119380D01*
X188666476Y-84214619D02*
X189237904Y-84214619D01*
X188952190Y-84214619D02*
X188952190Y-85214619D01*
X188952190Y-85214619D02*
X189047428Y-85071761D01*
X189047428Y-85071761D02*
X189142666Y-84976523D01*
X189142666Y-84976523D02*
X189237904Y-84928904D01*
X187809333Y-84881285D02*
X187809333Y-84214619D01*
X188047428Y-85262238D02*
X188285523Y-84547952D01*
X188285523Y-84547952D02*
X187666476Y-84547952D01*
X192232857Y-99057857D02*
X192280476Y-99010238D01*
X192280476Y-99010238D02*
X192423333Y-98962619D01*
X192423333Y-98962619D02*
X192518571Y-98962619D01*
X192518571Y-98962619D02*
X192661428Y-99010238D01*
X192661428Y-99010238D02*
X192756666Y-99105476D01*
X192756666Y-99105476D02*
X192804285Y-99200714D01*
X192804285Y-99200714D02*
X192851904Y-99391190D01*
X192851904Y-99391190D02*
X192851904Y-99534047D01*
X192851904Y-99534047D02*
X192804285Y-99724523D01*
X192804285Y-99724523D02*
X192756666Y-99819761D01*
X192756666Y-99819761D02*
X192661428Y-99915000D01*
X192661428Y-99915000D02*
X192518571Y-99962619D01*
X192518571Y-99962619D02*
X192423333Y-99962619D01*
X192423333Y-99962619D02*
X192280476Y-99915000D01*
X192280476Y-99915000D02*
X192232857Y-99867380D01*
X191280476Y-98962619D02*
X191851904Y-98962619D01*
X191566190Y-98962619D02*
X191566190Y-99962619D01*
X191566190Y-99962619D02*
X191661428Y-99819761D01*
X191661428Y-99819761D02*
X191756666Y-99724523D01*
X191756666Y-99724523D02*
X191851904Y-99676904D01*
X190947142Y-99962619D02*
X190328095Y-99962619D01*
X190328095Y-99962619D02*
X190661428Y-99581666D01*
X190661428Y-99581666D02*
X190518571Y-99581666D01*
X190518571Y-99581666D02*
X190423333Y-99534047D01*
X190423333Y-99534047D02*
X190375714Y-99486428D01*
X190375714Y-99486428D02*
X190328095Y-99391190D01*
X190328095Y-99391190D02*
X190328095Y-99153095D01*
X190328095Y-99153095D02*
X190375714Y-99057857D01*
X190375714Y-99057857D02*
X190423333Y-99010238D01*
X190423333Y-99010238D02*
X190518571Y-98962619D01*
X190518571Y-98962619D02*
X190804285Y-98962619D01*
X190804285Y-98962619D02*
X190899523Y-99010238D01*
X190899523Y-99010238D02*
X190947142Y-99057857D01*
X191392857Y-126727857D02*
X191440476Y-126680238D01*
X191440476Y-126680238D02*
X191583333Y-126632619D01*
X191583333Y-126632619D02*
X191678571Y-126632619D01*
X191678571Y-126632619D02*
X191821428Y-126680238D01*
X191821428Y-126680238D02*
X191916666Y-126775476D01*
X191916666Y-126775476D02*
X191964285Y-126870714D01*
X191964285Y-126870714D02*
X192011904Y-127061190D01*
X192011904Y-127061190D02*
X192011904Y-127204047D01*
X192011904Y-127204047D02*
X191964285Y-127394523D01*
X191964285Y-127394523D02*
X191916666Y-127489761D01*
X191916666Y-127489761D02*
X191821428Y-127585000D01*
X191821428Y-127585000D02*
X191678571Y-127632619D01*
X191678571Y-127632619D02*
X191583333Y-127632619D01*
X191583333Y-127632619D02*
X191440476Y-127585000D01*
X191440476Y-127585000D02*
X191392857Y-127537380D01*
X190440476Y-126632619D02*
X191011904Y-126632619D01*
X190726190Y-126632619D02*
X190726190Y-127632619D01*
X190726190Y-127632619D02*
X190821428Y-127489761D01*
X190821428Y-127489761D02*
X190916666Y-127394523D01*
X190916666Y-127394523D02*
X191011904Y-127346904D01*
X190107142Y-127632619D02*
X189440476Y-127632619D01*
X189440476Y-127632619D02*
X189869047Y-126632619D01*
X190214094Y-78356619D02*
X190214094Y-77547095D01*
X190214094Y-77547095D02*
X190166475Y-77451857D01*
X190166475Y-77451857D02*
X190118856Y-77404238D01*
X190118856Y-77404238D02*
X190023618Y-77356619D01*
X190023618Y-77356619D02*
X189833142Y-77356619D01*
X189833142Y-77356619D02*
X189737904Y-77404238D01*
X189737904Y-77404238D02*
X189690285Y-77451857D01*
X189690285Y-77451857D02*
X189642666Y-77547095D01*
X189642666Y-77547095D02*
X189642666Y-78356619D01*
X188642666Y-77356619D02*
X189214094Y-77356619D01*
X188928380Y-77356619D02*
X188928380Y-78356619D01*
X188928380Y-78356619D02*
X189023618Y-78213761D01*
X189023618Y-78213761D02*
X189118856Y-78118523D01*
X189118856Y-78118523D02*
X189214094Y-78070904D01*
X188261713Y-78261380D02*
X188214094Y-78309000D01*
X188214094Y-78309000D02*
X188118856Y-78356619D01*
X188118856Y-78356619D02*
X187880761Y-78356619D01*
X187880761Y-78356619D02*
X187785523Y-78309000D01*
X187785523Y-78309000D02*
X187737904Y-78261380D01*
X187737904Y-78261380D02*
X187690285Y-78166142D01*
X187690285Y-78166142D02*
X187690285Y-78070904D01*
X187690285Y-78070904D02*
X187737904Y-77928047D01*
X187737904Y-77928047D02*
X188309332Y-77356619D01*
X188309332Y-77356619D02*
X187690285Y-77356619D01*
X205199047Y-74342619D02*
X204532381Y-74342619D01*
X204532381Y-74342619D02*
X204960952Y-73342619D01*
X203722857Y-74009285D02*
X203722857Y-73342619D01*
X203960952Y-74390238D02*
X204199047Y-73675952D01*
X204199047Y-73675952D02*
X203580000Y-73675952D01*
X202722857Y-73342619D02*
X203199047Y-73342619D01*
X203199047Y-73342619D02*
X203199047Y-74342619D01*
X202437142Y-73390238D02*
X202294285Y-73342619D01*
X202294285Y-73342619D02*
X202056190Y-73342619D01*
X202056190Y-73342619D02*
X201960952Y-73390238D01*
X201960952Y-73390238D02*
X201913333Y-73437857D01*
X201913333Y-73437857D02*
X201865714Y-73533095D01*
X201865714Y-73533095D02*
X201865714Y-73628333D01*
X201865714Y-73628333D02*
X201913333Y-73723571D01*
X201913333Y-73723571D02*
X201960952Y-73771190D01*
X201960952Y-73771190D02*
X202056190Y-73818809D01*
X202056190Y-73818809D02*
X202246666Y-73866428D01*
X202246666Y-73866428D02*
X202341904Y-73914047D01*
X202341904Y-73914047D02*
X202389523Y-73961666D01*
X202389523Y-73961666D02*
X202437142Y-74056904D01*
X202437142Y-74056904D02*
X202437142Y-74152142D01*
X202437142Y-74152142D02*
X202389523Y-74247380D01*
X202389523Y-74247380D02*
X202341904Y-74295000D01*
X202341904Y-74295000D02*
X202246666Y-74342619D01*
X202246666Y-74342619D02*
X202008571Y-74342619D01*
X202008571Y-74342619D02*
X201865714Y-74295000D01*
X200913333Y-73342619D02*
X201484761Y-73342619D01*
X201199047Y-73342619D02*
X201199047Y-74342619D01*
X201199047Y-74342619D02*
X201294285Y-74199761D01*
X201294285Y-74199761D02*
X201389523Y-74104523D01*
X201389523Y-74104523D02*
X201484761Y-74056904D01*
X200056190Y-74009285D02*
X200056190Y-73342619D01*
X200294285Y-74390238D02*
X200532380Y-73675952D01*
X200532380Y-73675952D02*
X199913333Y-73675952D01*
X199056190Y-74342619D02*
X199532380Y-74342619D01*
X199532380Y-74342619D02*
X199579999Y-73866428D01*
X199579999Y-73866428D02*
X199532380Y-73914047D01*
X199532380Y-73914047D02*
X199437142Y-73961666D01*
X199437142Y-73961666D02*
X199199047Y-73961666D01*
X199199047Y-73961666D02*
X199103809Y-73914047D01*
X199103809Y-73914047D02*
X199056190Y-73866428D01*
X199056190Y-73866428D02*
X199008571Y-73771190D01*
X199008571Y-73771190D02*
X199008571Y-73533095D01*
X199008571Y-73533095D02*
X199056190Y-73437857D01*
X199056190Y-73437857D02*
X199103809Y-73390238D01*
X199103809Y-73390238D02*
X199199047Y-73342619D01*
X199199047Y-73342619D02*
X199437142Y-73342619D01*
X199437142Y-73342619D02*
X199532380Y-73390238D01*
X199532380Y-73390238D02*
X199579999Y-73437857D01*
X140664094Y-102885619D02*
X140664094Y-102076095D01*
X140664094Y-102076095D02*
X140616475Y-101980857D01*
X140616475Y-101980857D02*
X140568856Y-101933238D01*
X140568856Y-101933238D02*
X140473618Y-101885619D01*
X140473618Y-101885619D02*
X140283142Y-101885619D01*
X140283142Y-101885619D02*
X140187904Y-101933238D01*
X140187904Y-101933238D02*
X140140285Y-101980857D01*
X140140285Y-101980857D02*
X140092666Y-102076095D01*
X140092666Y-102076095D02*
X140092666Y-102885619D01*
X139092666Y-101885619D02*
X139664094Y-101885619D01*
X139378380Y-101885619D02*
X139378380Y-102885619D01*
X139378380Y-102885619D02*
X139473618Y-102742761D01*
X139473618Y-102742761D02*
X139568856Y-102647523D01*
X139568856Y-102647523D02*
X139664094Y-102599904D01*
X138759332Y-102885619D02*
X138140285Y-102885619D01*
X138140285Y-102885619D02*
X138473618Y-102504666D01*
X138473618Y-102504666D02*
X138330761Y-102504666D01*
X138330761Y-102504666D02*
X138235523Y-102457047D01*
X138235523Y-102457047D02*
X138187904Y-102409428D01*
X138187904Y-102409428D02*
X138140285Y-102314190D01*
X138140285Y-102314190D02*
X138140285Y-102076095D01*
X138140285Y-102076095D02*
X138187904Y-101980857D01*
X138187904Y-101980857D02*
X138235523Y-101933238D01*
X138235523Y-101933238D02*
X138330761Y-101885619D01*
X138330761Y-101885619D02*
X138616475Y-101885619D01*
X138616475Y-101885619D02*
X138711713Y-101933238D01*
X138711713Y-101933238D02*
X138759332Y-101980857D01*
X162721332Y-94951619D02*
X162483237Y-93951619D01*
X162483237Y-93951619D02*
X162292761Y-94665904D01*
X162292761Y-94665904D02*
X162102285Y-93951619D01*
X162102285Y-93951619D02*
X161864190Y-94951619D01*
X161483237Y-93951619D02*
X161483237Y-94951619D01*
X161483237Y-94951619D02*
X161245142Y-94951619D01*
X161245142Y-94951619D02*
X161102285Y-94904000D01*
X161102285Y-94904000D02*
X161007047Y-94808761D01*
X161007047Y-94808761D02*
X160959428Y-94713523D01*
X160959428Y-94713523D02*
X160911809Y-94523047D01*
X160911809Y-94523047D02*
X160911809Y-94380190D01*
X160911809Y-94380190D02*
X160959428Y-94189714D01*
X160959428Y-94189714D02*
X161007047Y-94094476D01*
X161007047Y-94094476D02*
X161102285Y-93999238D01*
X161102285Y-93999238D02*
X161245142Y-93951619D01*
X161245142Y-93951619D02*
X161483237Y-93951619D01*
X159959428Y-93951619D02*
X160530856Y-93951619D01*
X160245142Y-93951619D02*
X160245142Y-94951619D01*
X160245142Y-94951619D02*
X160340380Y-94808761D01*
X160340380Y-94808761D02*
X160435618Y-94713523D01*
X160435618Y-94713523D02*
X160530856Y-94665904D01*
X159626094Y-94951619D02*
X158959428Y-94951619D01*
X158959428Y-94951619D02*
X159387999Y-93951619D01*
X158673713Y-94951619D02*
X158007047Y-94951619D01*
X158007047Y-94951619D02*
X158435618Y-93951619D01*
X157721332Y-94951619D02*
X157102285Y-94951619D01*
X157102285Y-94951619D02*
X157435618Y-94570666D01*
X157435618Y-94570666D02*
X157292761Y-94570666D01*
X157292761Y-94570666D02*
X157197523Y-94523047D01*
X157197523Y-94523047D02*
X157149904Y-94475428D01*
X157149904Y-94475428D02*
X157102285Y-94380190D01*
X157102285Y-94380190D02*
X157102285Y-94142095D01*
X157102285Y-94142095D02*
X157149904Y-94046857D01*
X157149904Y-94046857D02*
X157197523Y-93999238D01*
X157197523Y-93999238D02*
X157292761Y-93951619D01*
X157292761Y-93951619D02*
X157578475Y-93951619D01*
X157578475Y-93951619D02*
X157673713Y-93999238D01*
X157673713Y-93999238D02*
X157721332Y-94046857D01*
X190214094Y-93596619D02*
X190214094Y-92787095D01*
X190214094Y-92787095D02*
X190166475Y-92691857D01*
X190166475Y-92691857D02*
X190118856Y-92644238D01*
X190118856Y-92644238D02*
X190023618Y-92596619D01*
X190023618Y-92596619D02*
X189833142Y-92596619D01*
X189833142Y-92596619D02*
X189737904Y-92644238D01*
X189737904Y-92644238D02*
X189690285Y-92691857D01*
X189690285Y-92691857D02*
X189642666Y-92787095D01*
X189642666Y-92787095D02*
X189642666Y-93596619D01*
X188642666Y-92596619D02*
X189214094Y-92596619D01*
X188928380Y-92596619D02*
X188928380Y-93596619D01*
X188928380Y-93596619D02*
X189023618Y-93453761D01*
X189023618Y-93453761D02*
X189118856Y-93358523D01*
X189118856Y-93358523D02*
X189214094Y-93310904D01*
X187690285Y-92596619D02*
X188261713Y-92596619D01*
X187975999Y-92596619D02*
X187975999Y-93596619D01*
X187975999Y-93596619D02*
X188071237Y-93453761D01*
X188071237Y-93453761D02*
X188166475Y-93358523D01*
X188166475Y-93358523D02*
X188261713Y-93310904D01*
X204474047Y-89332619D02*
X203807381Y-89332619D01*
X203807381Y-89332619D02*
X204235952Y-88332619D01*
X202997857Y-88999285D02*
X202997857Y-88332619D01*
X203235952Y-89380238D02*
X203474047Y-88665952D01*
X203474047Y-88665952D02*
X202855000Y-88665952D01*
X201997857Y-88332619D02*
X202474047Y-88332619D01*
X202474047Y-88332619D02*
X202474047Y-89332619D01*
X201712142Y-88380238D02*
X201569285Y-88332619D01*
X201569285Y-88332619D02*
X201331190Y-88332619D01*
X201331190Y-88332619D02*
X201235952Y-88380238D01*
X201235952Y-88380238D02*
X201188333Y-88427857D01*
X201188333Y-88427857D02*
X201140714Y-88523095D01*
X201140714Y-88523095D02*
X201140714Y-88618333D01*
X201140714Y-88618333D02*
X201188333Y-88713571D01*
X201188333Y-88713571D02*
X201235952Y-88761190D01*
X201235952Y-88761190D02*
X201331190Y-88808809D01*
X201331190Y-88808809D02*
X201521666Y-88856428D01*
X201521666Y-88856428D02*
X201616904Y-88904047D01*
X201616904Y-88904047D02*
X201664523Y-88951666D01*
X201664523Y-88951666D02*
X201712142Y-89046904D01*
X201712142Y-89046904D02*
X201712142Y-89142142D01*
X201712142Y-89142142D02*
X201664523Y-89237380D01*
X201664523Y-89237380D02*
X201616904Y-89285000D01*
X201616904Y-89285000D02*
X201521666Y-89332619D01*
X201521666Y-89332619D02*
X201283571Y-89332619D01*
X201283571Y-89332619D02*
X201140714Y-89285000D01*
X200188333Y-88332619D02*
X200759761Y-88332619D01*
X200474047Y-88332619D02*
X200474047Y-89332619D01*
X200474047Y-89332619D02*
X200569285Y-89189761D01*
X200569285Y-89189761D02*
X200664523Y-89094523D01*
X200664523Y-89094523D02*
X200759761Y-89046904D01*
X199854999Y-89332619D02*
X199188333Y-89332619D01*
X199188333Y-89332619D02*
X199616904Y-88332619D01*
X198331190Y-89332619D02*
X198807380Y-89332619D01*
X198807380Y-89332619D02*
X198854999Y-88856428D01*
X198854999Y-88856428D02*
X198807380Y-88904047D01*
X198807380Y-88904047D02*
X198712142Y-88951666D01*
X198712142Y-88951666D02*
X198474047Y-88951666D01*
X198474047Y-88951666D02*
X198378809Y-88904047D01*
X198378809Y-88904047D02*
X198331190Y-88856428D01*
X198331190Y-88856428D02*
X198283571Y-88761190D01*
X198283571Y-88761190D02*
X198283571Y-88523095D01*
X198283571Y-88523095D02*
X198331190Y-88427857D01*
X198331190Y-88427857D02*
X198378809Y-88380238D01*
X198378809Y-88380238D02*
X198474047Y-88332619D01*
X198474047Y-88332619D02*
X198712142Y-88332619D01*
X198712142Y-88332619D02*
X198807380Y-88380238D01*
X198807380Y-88380238D02*
X198854999Y-88427857D01*
X129127238Y-125977380D02*
X129222476Y-126025000D01*
X129222476Y-126025000D02*
X129317714Y-126120238D01*
X129317714Y-126120238D02*
X129460571Y-126263095D01*
X129460571Y-126263095D02*
X129555809Y-126310714D01*
X129555809Y-126310714D02*
X129651047Y-126310714D01*
X129603428Y-126072619D02*
X129698666Y-126120238D01*
X129698666Y-126120238D02*
X129793904Y-126215476D01*
X129793904Y-126215476D02*
X129841523Y-126405952D01*
X129841523Y-126405952D02*
X129841523Y-126739285D01*
X129841523Y-126739285D02*
X129793904Y-126929761D01*
X129793904Y-126929761D02*
X129698666Y-127025000D01*
X129698666Y-127025000D02*
X129603428Y-127072619D01*
X129603428Y-127072619D02*
X129412952Y-127072619D01*
X129412952Y-127072619D02*
X129317714Y-127025000D01*
X129317714Y-127025000D02*
X129222476Y-126929761D01*
X129222476Y-126929761D02*
X129174857Y-126739285D01*
X129174857Y-126739285D02*
X129174857Y-126405952D01*
X129174857Y-126405952D02*
X129222476Y-126215476D01*
X129222476Y-126215476D02*
X129317714Y-126120238D01*
X129317714Y-126120238D02*
X129412952Y-126072619D01*
X129412952Y-126072619D02*
X129603428Y-126072619D01*
X128222476Y-126072619D02*
X128793904Y-126072619D01*
X128508190Y-126072619D02*
X128508190Y-127072619D01*
X128508190Y-127072619D02*
X128603428Y-126929761D01*
X128603428Y-126929761D02*
X128698666Y-126834523D01*
X128698666Y-126834523D02*
X128793904Y-126786904D01*
X197916666Y-124827857D02*
X197964285Y-124780238D01*
X197964285Y-124780238D02*
X198107142Y-124732619D01*
X198107142Y-124732619D02*
X198202380Y-124732619D01*
X198202380Y-124732619D02*
X198345237Y-124780238D01*
X198345237Y-124780238D02*
X198440475Y-124875476D01*
X198440475Y-124875476D02*
X198488094Y-124970714D01*
X198488094Y-124970714D02*
X198535713Y-125161190D01*
X198535713Y-125161190D02*
X198535713Y-125304047D01*
X198535713Y-125304047D02*
X198488094Y-125494523D01*
X198488094Y-125494523D02*
X198440475Y-125589761D01*
X198440475Y-125589761D02*
X198345237Y-125685000D01*
X198345237Y-125685000D02*
X198202380Y-125732619D01*
X198202380Y-125732619D02*
X198107142Y-125732619D01*
X198107142Y-125732619D02*
X197964285Y-125685000D01*
X197964285Y-125685000D02*
X197916666Y-125637380D01*
X197059523Y-125399285D02*
X197059523Y-124732619D01*
X197297618Y-125780238D02*
X197535713Y-125065952D01*
X197535713Y-125065952D02*
X196916666Y-125065952D01*
X141311904Y-127672619D02*
X141311904Y-126863095D01*
X141311904Y-126863095D02*
X141264285Y-126767857D01*
X141264285Y-126767857D02*
X141216666Y-126720238D01*
X141216666Y-126720238D02*
X141121428Y-126672619D01*
X141121428Y-126672619D02*
X140930952Y-126672619D01*
X140930952Y-126672619D02*
X140835714Y-126720238D01*
X140835714Y-126720238D02*
X140788095Y-126767857D01*
X140788095Y-126767857D02*
X140740476Y-126863095D01*
X140740476Y-126863095D02*
X140740476Y-127672619D01*
X140359523Y-127672619D02*
X139740476Y-127672619D01*
X139740476Y-127672619D02*
X140073809Y-127291666D01*
X140073809Y-127291666D02*
X139930952Y-127291666D01*
X139930952Y-127291666D02*
X139835714Y-127244047D01*
X139835714Y-127244047D02*
X139788095Y-127196428D01*
X139788095Y-127196428D02*
X139740476Y-127101190D01*
X139740476Y-127101190D02*
X139740476Y-126863095D01*
X139740476Y-126863095D02*
X139788095Y-126767857D01*
X139788095Y-126767857D02*
X139835714Y-126720238D01*
X139835714Y-126720238D02*
X139930952Y-126672619D01*
X139930952Y-126672619D02*
X140216666Y-126672619D01*
X140216666Y-126672619D02*
X140311904Y-126720238D01*
X140311904Y-126720238D02*
X140359523Y-126767857D01*
X153954762Y-126875000D02*
X154050000Y-126922619D01*
X154050000Y-126922619D02*
X154192857Y-126922619D01*
X154192857Y-126922619D02*
X154335714Y-126875000D01*
X154335714Y-126875000D02*
X154430952Y-126779761D01*
X154430952Y-126779761D02*
X154478571Y-126684523D01*
X154478571Y-126684523D02*
X154526190Y-126494047D01*
X154526190Y-126494047D02*
X154526190Y-126351190D01*
X154526190Y-126351190D02*
X154478571Y-126160714D01*
X154478571Y-126160714D02*
X154430952Y-126065476D01*
X154430952Y-126065476D02*
X154335714Y-125970238D01*
X154335714Y-125970238D02*
X154192857Y-125922619D01*
X154192857Y-125922619D02*
X154097619Y-125922619D01*
X154097619Y-125922619D02*
X153954762Y-125970238D01*
X153954762Y-125970238D02*
X153907143Y-126017857D01*
X153907143Y-126017857D02*
X153907143Y-126351190D01*
X153907143Y-126351190D02*
X154097619Y-126351190D01*
X153526190Y-126208333D02*
X153050000Y-126208333D01*
X153621428Y-125922619D02*
X153288095Y-126922619D01*
X153288095Y-126922619D02*
X152954762Y-125922619D01*
X152145238Y-125922619D02*
X152621428Y-125922619D01*
X152621428Y-125922619D02*
X152621428Y-126922619D01*
X151859523Y-126827380D02*
X151811904Y-126875000D01*
X151811904Y-126875000D02*
X151716666Y-126922619D01*
X151716666Y-126922619D02*
X151478571Y-126922619D01*
X151478571Y-126922619D02*
X151383333Y-126875000D01*
X151383333Y-126875000D02*
X151335714Y-126827380D01*
X151335714Y-126827380D02*
X151288095Y-126732142D01*
X151288095Y-126732142D02*
X151288095Y-126636904D01*
X151288095Y-126636904D02*
X151335714Y-126494047D01*
X151335714Y-126494047D02*
X151907142Y-125922619D01*
X151907142Y-125922619D02*
X151288095Y-125922619D01*
X150430952Y-126922619D02*
X150621428Y-126922619D01*
X150621428Y-126922619D02*
X150716666Y-126875000D01*
X150716666Y-126875000D02*
X150764285Y-126827380D01*
X150764285Y-126827380D02*
X150859523Y-126684523D01*
X150859523Y-126684523D02*
X150907142Y-126494047D01*
X150907142Y-126494047D02*
X150907142Y-126113095D01*
X150907142Y-126113095D02*
X150859523Y-126017857D01*
X150859523Y-126017857D02*
X150811904Y-125970238D01*
X150811904Y-125970238D02*
X150716666Y-125922619D01*
X150716666Y-125922619D02*
X150526190Y-125922619D01*
X150526190Y-125922619D02*
X150430952Y-125970238D01*
X150430952Y-125970238D02*
X150383333Y-126017857D01*
X150383333Y-126017857D02*
X150335714Y-126113095D01*
X150335714Y-126113095D02*
X150335714Y-126351190D01*
X150335714Y-126351190D02*
X150383333Y-126446428D01*
X150383333Y-126446428D02*
X150430952Y-126494047D01*
X150430952Y-126494047D02*
X150526190Y-126541666D01*
X150526190Y-126541666D02*
X150716666Y-126541666D01*
X150716666Y-126541666D02*
X150811904Y-126494047D01*
X150811904Y-126494047D02*
X150859523Y-126446428D01*
X150859523Y-126446428D02*
X150907142Y-126351190D01*
X150049999Y-126922619D02*
X149716666Y-125922619D01*
X149716666Y-125922619D02*
X149383333Y-126922619D01*
X148526190Y-125922619D02*
X149097618Y-125922619D01*
X148811904Y-125922619D02*
X148811904Y-126922619D01*
X148811904Y-126922619D02*
X148907142Y-126779761D01*
X148907142Y-126779761D02*
X149002380Y-126684523D01*
X149002380Y-126684523D02*
X149097618Y-126636904D01*
X148145237Y-126827380D02*
X148097618Y-126875000D01*
X148097618Y-126875000D02*
X148002380Y-126922619D01*
X148002380Y-126922619D02*
X147764285Y-126922619D01*
X147764285Y-126922619D02*
X147669047Y-126875000D01*
X147669047Y-126875000D02*
X147621428Y-126827380D01*
X147621428Y-126827380D02*
X147573809Y-126732142D01*
X147573809Y-126732142D02*
X147573809Y-126636904D01*
X147573809Y-126636904D02*
X147621428Y-126494047D01*
X147621428Y-126494047D02*
X148192856Y-125922619D01*
X148192856Y-125922619D02*
X147573809Y-125922619D01*
X105511904Y-127132619D02*
X105511904Y-126323095D01*
X105511904Y-126323095D02*
X105464285Y-126227857D01*
X105464285Y-126227857D02*
X105416666Y-126180238D01*
X105416666Y-126180238D02*
X105321428Y-126132619D01*
X105321428Y-126132619D02*
X105130952Y-126132619D01*
X105130952Y-126132619D02*
X105035714Y-126180238D01*
X105035714Y-126180238D02*
X104988095Y-126227857D01*
X104988095Y-126227857D02*
X104940476Y-126323095D01*
X104940476Y-126323095D02*
X104940476Y-127132619D01*
X104321428Y-126704047D02*
X104416666Y-126751666D01*
X104416666Y-126751666D02*
X104464285Y-126799285D01*
X104464285Y-126799285D02*
X104511904Y-126894523D01*
X104511904Y-126894523D02*
X104511904Y-126942142D01*
X104511904Y-126942142D02*
X104464285Y-127037380D01*
X104464285Y-127037380D02*
X104416666Y-127085000D01*
X104416666Y-127085000D02*
X104321428Y-127132619D01*
X104321428Y-127132619D02*
X104130952Y-127132619D01*
X104130952Y-127132619D02*
X104035714Y-127085000D01*
X104035714Y-127085000D02*
X103988095Y-127037380D01*
X103988095Y-127037380D02*
X103940476Y-126942142D01*
X103940476Y-126942142D02*
X103940476Y-126894523D01*
X103940476Y-126894523D02*
X103988095Y-126799285D01*
X103988095Y-126799285D02*
X104035714Y-126751666D01*
X104035714Y-126751666D02*
X104130952Y-126704047D01*
X104130952Y-126704047D02*
X104321428Y-126704047D01*
X104321428Y-126704047D02*
X104416666Y-126656428D01*
X104416666Y-126656428D02*
X104464285Y-126608809D01*
X104464285Y-126608809D02*
X104511904Y-126513571D01*
X104511904Y-126513571D02*
X104511904Y-126323095D01*
X104511904Y-126323095D02*
X104464285Y-126227857D01*
X104464285Y-126227857D02*
X104416666Y-126180238D01*
X104416666Y-126180238D02*
X104321428Y-126132619D01*
X104321428Y-126132619D02*
X104130952Y-126132619D01*
X104130952Y-126132619D02*
X104035714Y-126180238D01*
X104035714Y-126180238D02*
X103988095Y-126227857D01*
X103988095Y-126227857D02*
X103940476Y-126323095D01*
X103940476Y-126323095D02*
X103940476Y-126513571D01*
X103940476Y-126513571D02*
X103988095Y-126608809D01*
X103988095Y-126608809D02*
X104035714Y-126656428D01*
X104035714Y-126656428D02*
X104130952Y-126704047D01*
X125309523Y-117632619D02*
X125071428Y-116632619D01*
X125071428Y-116632619D02*
X124880952Y-117346904D01*
X124880952Y-117346904D02*
X124690476Y-116632619D01*
X124690476Y-116632619D02*
X124452381Y-117632619D01*
X124119047Y-117537380D02*
X124071428Y-117585000D01*
X124071428Y-117585000D02*
X123976190Y-117632619D01*
X123976190Y-117632619D02*
X123738095Y-117632619D01*
X123738095Y-117632619D02*
X123642857Y-117585000D01*
X123642857Y-117585000D02*
X123595238Y-117537380D01*
X123595238Y-117537380D02*
X123547619Y-117442142D01*
X123547619Y-117442142D02*
X123547619Y-117346904D01*
X123547619Y-117346904D02*
X123595238Y-117204047D01*
X123595238Y-117204047D02*
X124166666Y-116632619D01*
X124166666Y-116632619D02*
X123547619Y-116632619D01*
X123214285Y-117632619D02*
X122547619Y-117632619D01*
X122547619Y-117632619D02*
X122976190Y-116632619D01*
X121595238Y-116727857D02*
X121642857Y-116680238D01*
X121642857Y-116680238D02*
X121785714Y-116632619D01*
X121785714Y-116632619D02*
X121880952Y-116632619D01*
X121880952Y-116632619D02*
X122023809Y-116680238D01*
X122023809Y-116680238D02*
X122119047Y-116775476D01*
X122119047Y-116775476D02*
X122166666Y-116870714D01*
X122166666Y-116870714D02*
X122214285Y-117061190D01*
X122214285Y-117061190D02*
X122214285Y-117204047D01*
X122214285Y-117204047D02*
X122166666Y-117394523D01*
X122166666Y-117394523D02*
X122119047Y-117489761D01*
X122119047Y-117489761D02*
X122023809Y-117585000D01*
X122023809Y-117585000D02*
X121880952Y-117632619D01*
X121880952Y-117632619D02*
X121785714Y-117632619D01*
X121785714Y-117632619D02*
X121642857Y-117585000D01*
X121642857Y-117585000D02*
X121595238Y-117537380D01*
X120690476Y-117632619D02*
X121166666Y-117632619D01*
X121166666Y-117632619D02*
X121214285Y-117156428D01*
X121214285Y-117156428D02*
X121166666Y-117204047D01*
X121166666Y-117204047D02*
X121071428Y-117251666D01*
X121071428Y-117251666D02*
X120833333Y-117251666D01*
X120833333Y-117251666D02*
X120738095Y-117204047D01*
X120738095Y-117204047D02*
X120690476Y-117156428D01*
X120690476Y-117156428D02*
X120642857Y-117061190D01*
X120642857Y-117061190D02*
X120642857Y-116823095D01*
X120642857Y-116823095D02*
X120690476Y-116727857D01*
X120690476Y-116727857D02*
X120738095Y-116680238D01*
X120738095Y-116680238D02*
X120833333Y-116632619D01*
X120833333Y-116632619D02*
X121071428Y-116632619D01*
X121071428Y-116632619D02*
X121166666Y-116680238D01*
X121166666Y-116680238D02*
X121214285Y-116727857D01*
X119690476Y-116632619D02*
X120261904Y-116632619D01*
X119976190Y-116632619D02*
X119976190Y-117632619D01*
X119976190Y-117632619D02*
X120071428Y-117489761D01*
X120071428Y-117489761D02*
X120166666Y-117394523D01*
X120166666Y-117394523D02*
X120261904Y-117346904D01*
X119309523Y-117537380D02*
X119261904Y-117585000D01*
X119261904Y-117585000D02*
X119166666Y-117632619D01*
X119166666Y-117632619D02*
X118928571Y-117632619D01*
X118928571Y-117632619D02*
X118833333Y-117585000D01*
X118833333Y-117585000D02*
X118785714Y-117537380D01*
X118785714Y-117537380D02*
X118738095Y-117442142D01*
X118738095Y-117442142D02*
X118738095Y-117346904D01*
X118738095Y-117346904D02*
X118785714Y-117204047D01*
X118785714Y-117204047D02*
X119357142Y-116632619D01*
X119357142Y-116632619D02*
X118738095Y-116632619D01*
X136333333Y-90382619D02*
X136333333Y-89668333D01*
X136333333Y-89668333D02*
X136380952Y-89525476D01*
X136380952Y-89525476D02*
X136476190Y-89430238D01*
X136476190Y-89430238D02*
X136619047Y-89382619D01*
X136619047Y-89382619D02*
X136714285Y-89382619D01*
X135857142Y-89382619D02*
X135857142Y-90382619D01*
X135857142Y-90382619D02*
X135476190Y-90382619D01*
X135476190Y-90382619D02*
X135380952Y-90335000D01*
X135380952Y-90335000D02*
X135333333Y-90287380D01*
X135333333Y-90287380D02*
X135285714Y-90192142D01*
X135285714Y-90192142D02*
X135285714Y-90049285D01*
X135285714Y-90049285D02*
X135333333Y-89954047D01*
X135333333Y-89954047D02*
X135380952Y-89906428D01*
X135380952Y-89906428D02*
X135476190Y-89858809D01*
X135476190Y-89858809D02*
X135857142Y-89858809D01*
X134904761Y-90287380D02*
X134857142Y-90335000D01*
X134857142Y-90335000D02*
X134761904Y-90382619D01*
X134761904Y-90382619D02*
X134523809Y-90382619D01*
X134523809Y-90382619D02*
X134428571Y-90335000D01*
X134428571Y-90335000D02*
X134380952Y-90287380D01*
X134380952Y-90287380D02*
X134333333Y-90192142D01*
X134333333Y-90192142D02*
X134333333Y-90096904D01*
X134333333Y-90096904D02*
X134380952Y-89954047D01*
X134380952Y-89954047D02*
X134952380Y-89382619D01*
X134952380Y-89382619D02*
X134333333Y-89382619D01*
X124643333Y-55612619D02*
X124643333Y-54898333D01*
X124643333Y-54898333D02*
X124690952Y-54755476D01*
X124690952Y-54755476D02*
X124786190Y-54660238D01*
X124786190Y-54660238D02*
X124929047Y-54612619D01*
X124929047Y-54612619D02*
X125024285Y-54612619D01*
X124214761Y-55517380D02*
X124167142Y-55565000D01*
X124167142Y-55565000D02*
X124071904Y-55612619D01*
X124071904Y-55612619D02*
X123833809Y-55612619D01*
X123833809Y-55612619D02*
X123738571Y-55565000D01*
X123738571Y-55565000D02*
X123690952Y-55517380D01*
X123690952Y-55517380D02*
X123643333Y-55422142D01*
X123643333Y-55422142D02*
X123643333Y-55326904D01*
X123643333Y-55326904D02*
X123690952Y-55184047D01*
X123690952Y-55184047D02*
X124262380Y-54612619D01*
X124262380Y-54612619D02*
X123643333Y-54612619D01*
X158228571Y-42866428D02*
X158561904Y-42866428D01*
X158561904Y-42342619D02*
X158561904Y-43342619D01*
X158561904Y-43342619D02*
X158085714Y-43342619D01*
X157704761Y-42342619D02*
X157704761Y-43342619D01*
X157704761Y-43342619D02*
X157466666Y-43342619D01*
X157466666Y-43342619D02*
X157323809Y-43295000D01*
X157323809Y-43295000D02*
X157228571Y-43199761D01*
X157228571Y-43199761D02*
X157180952Y-43104523D01*
X157180952Y-43104523D02*
X157133333Y-42914047D01*
X157133333Y-42914047D02*
X157133333Y-42771190D01*
X157133333Y-42771190D02*
X157180952Y-42580714D01*
X157180952Y-42580714D02*
X157228571Y-42485476D01*
X157228571Y-42485476D02*
X157323809Y-42390238D01*
X157323809Y-42390238D02*
X157466666Y-42342619D01*
X157466666Y-42342619D02*
X157704761Y-42342619D01*
X156133333Y-42437857D02*
X156180952Y-42390238D01*
X156180952Y-42390238D02*
X156323809Y-42342619D01*
X156323809Y-42342619D02*
X156419047Y-42342619D01*
X156419047Y-42342619D02*
X156561904Y-42390238D01*
X156561904Y-42390238D02*
X156657142Y-42485476D01*
X156657142Y-42485476D02*
X156704761Y-42580714D01*
X156704761Y-42580714D02*
X156752380Y-42771190D01*
X156752380Y-42771190D02*
X156752380Y-42914047D01*
X156752380Y-42914047D02*
X156704761Y-43104523D01*
X156704761Y-43104523D02*
X156657142Y-43199761D01*
X156657142Y-43199761D02*
X156561904Y-43295000D01*
X156561904Y-43295000D02*
X156419047Y-43342619D01*
X156419047Y-43342619D02*
X156323809Y-43342619D01*
X156323809Y-43342619D02*
X156180952Y-43295000D01*
X156180952Y-43295000D02*
X156133333Y-43247380D01*
X155704761Y-42723571D02*
X154942857Y-42723571D01*
X154561904Y-43342619D02*
X153942857Y-43342619D01*
X153942857Y-43342619D02*
X154276190Y-42961666D01*
X154276190Y-42961666D02*
X154133333Y-42961666D01*
X154133333Y-42961666D02*
X154038095Y-42914047D01*
X154038095Y-42914047D02*
X153990476Y-42866428D01*
X153990476Y-42866428D02*
X153942857Y-42771190D01*
X153942857Y-42771190D02*
X153942857Y-42533095D01*
X153942857Y-42533095D02*
X153990476Y-42437857D01*
X153990476Y-42437857D02*
X154038095Y-42390238D01*
X154038095Y-42390238D02*
X154133333Y-42342619D01*
X154133333Y-42342619D02*
X154419047Y-42342619D01*
X154419047Y-42342619D02*
X154514285Y-42390238D01*
X154514285Y-42390238D02*
X154561904Y-42437857D01*
X153085714Y-43009285D02*
X153085714Y-42342619D01*
X153323809Y-43390238D02*
X153561904Y-42675952D01*
X153561904Y-42675952D02*
X152942857Y-42675952D01*
X112726190Y-47608809D02*
X112726190Y-47132619D01*
X113059523Y-48132619D02*
X112726190Y-47608809D01*
X112726190Y-47608809D02*
X112392857Y-48132619D01*
X111535714Y-47132619D02*
X112107142Y-47132619D01*
X111821428Y-47132619D02*
X111821428Y-48132619D01*
X111821428Y-48132619D02*
X111916666Y-47989761D01*
X111916666Y-47989761D02*
X112011904Y-47894523D01*
X112011904Y-47894523D02*
X112107142Y-47846904D01*
X113940476Y-60632619D02*
X114511904Y-60632619D01*
X114226190Y-60632619D02*
X114226190Y-61632619D01*
X114226190Y-61632619D02*
X114321428Y-61489761D01*
X114321428Y-61489761D02*
X114416666Y-61394523D01*
X114416666Y-61394523D02*
X114511904Y-61346904D01*
X113083333Y-61632619D02*
X113273809Y-61632619D01*
X113273809Y-61632619D02*
X113369047Y-61585000D01*
X113369047Y-61585000D02*
X113416666Y-61537380D01*
X113416666Y-61537380D02*
X113511904Y-61394523D01*
X113511904Y-61394523D02*
X113559523Y-61204047D01*
X113559523Y-61204047D02*
X113559523Y-60823095D01*
X113559523Y-60823095D02*
X113511904Y-60727857D01*
X113511904Y-60727857D02*
X113464285Y-60680238D01*
X113464285Y-60680238D02*
X113369047Y-60632619D01*
X113369047Y-60632619D02*
X113178571Y-60632619D01*
X113178571Y-60632619D02*
X113083333Y-60680238D01*
X113083333Y-60680238D02*
X113035714Y-60727857D01*
X113035714Y-60727857D02*
X112988095Y-60823095D01*
X112988095Y-60823095D02*
X112988095Y-61061190D01*
X112988095Y-61061190D02*
X113035714Y-61156428D01*
X113035714Y-61156428D02*
X113083333Y-61204047D01*
X113083333Y-61204047D02*
X113178571Y-61251666D01*
X113178571Y-61251666D02*
X113369047Y-61251666D01*
X113369047Y-61251666D02*
X113464285Y-61204047D01*
X113464285Y-61204047D02*
X113511904Y-61156428D01*
X113511904Y-61156428D02*
X113559523Y-61061190D01*
X112559523Y-60632619D02*
X112559523Y-61632619D01*
X112559523Y-61632619D02*
X112226190Y-60918333D01*
X112226190Y-60918333D02*
X111892857Y-61632619D01*
X111892857Y-61632619D02*
X111892857Y-60632619D01*
X111416666Y-60632619D02*
X111416666Y-61632619D01*
X111416666Y-61156428D02*
X110845238Y-61156428D01*
X110845238Y-60632619D02*
X110845238Y-61632619D01*
X110464285Y-61299285D02*
X109940476Y-61299285D01*
X109940476Y-61299285D02*
X110464285Y-60632619D01*
X110464285Y-60632619D02*
X109940476Y-60632619D01*
X139333333Y-90314619D02*
X139333333Y-89600333D01*
X139333333Y-89600333D02*
X139380952Y-89457476D01*
X139380952Y-89457476D02*
X139476190Y-89362238D01*
X139476190Y-89362238D02*
X139619047Y-89314619D01*
X139619047Y-89314619D02*
X139714285Y-89314619D01*
X138857142Y-89314619D02*
X138857142Y-90314619D01*
X138857142Y-90314619D02*
X138476190Y-90314619D01*
X138476190Y-90314619D02*
X138380952Y-90267000D01*
X138380952Y-90267000D02*
X138333333Y-90219380D01*
X138333333Y-90219380D02*
X138285714Y-90124142D01*
X138285714Y-90124142D02*
X138285714Y-89981285D01*
X138285714Y-89981285D02*
X138333333Y-89886047D01*
X138333333Y-89886047D02*
X138380952Y-89838428D01*
X138380952Y-89838428D02*
X138476190Y-89790809D01*
X138476190Y-89790809D02*
X138857142Y-89790809D01*
X137333333Y-89314619D02*
X137904761Y-89314619D01*
X137619047Y-89314619D02*
X137619047Y-90314619D01*
X137619047Y-90314619D02*
X137714285Y-90171761D01*
X137714285Y-90171761D02*
X137809523Y-90076523D01*
X137809523Y-90076523D02*
X137904761Y-90028904D01*
X162011904Y-122572619D02*
X162011904Y-121763095D01*
X162011904Y-121763095D02*
X161964285Y-121667857D01*
X161964285Y-121667857D02*
X161916666Y-121620238D01*
X161916666Y-121620238D02*
X161821428Y-121572619D01*
X161821428Y-121572619D02*
X161630952Y-121572619D01*
X161630952Y-121572619D02*
X161535714Y-121620238D01*
X161535714Y-121620238D02*
X161488095Y-121667857D01*
X161488095Y-121667857D02*
X161440476Y-121763095D01*
X161440476Y-121763095D02*
X161440476Y-122572619D01*
X160535714Y-122572619D02*
X160726190Y-122572619D01*
X160726190Y-122572619D02*
X160821428Y-122525000D01*
X160821428Y-122525000D02*
X160869047Y-122477380D01*
X160869047Y-122477380D02*
X160964285Y-122334523D01*
X160964285Y-122334523D02*
X161011904Y-122144047D01*
X161011904Y-122144047D02*
X161011904Y-121763095D01*
X161011904Y-121763095D02*
X160964285Y-121667857D01*
X160964285Y-121667857D02*
X160916666Y-121620238D01*
X160916666Y-121620238D02*
X160821428Y-121572619D01*
X160821428Y-121572619D02*
X160630952Y-121572619D01*
X160630952Y-121572619D02*
X160535714Y-121620238D01*
X160535714Y-121620238D02*
X160488095Y-121667857D01*
X160488095Y-121667857D02*
X160440476Y-121763095D01*
X160440476Y-121763095D02*
X160440476Y-122001190D01*
X160440476Y-122001190D02*
X160488095Y-122096428D01*
X160488095Y-122096428D02*
X160535714Y-122144047D01*
X160535714Y-122144047D02*
X160630952Y-122191666D01*
X160630952Y-122191666D02*
X160821428Y-122191666D01*
X160821428Y-122191666D02*
X160916666Y-122144047D01*
X160916666Y-122144047D02*
X160964285Y-122096428D01*
X160964285Y-122096428D02*
X161011904Y-122001190D01*
X179649047Y-118332619D02*
X178982381Y-118332619D01*
X178982381Y-118332619D02*
X179410952Y-117332619D01*
X178172857Y-117999285D02*
X178172857Y-117332619D01*
X178410952Y-118380238D02*
X178649047Y-117665952D01*
X178649047Y-117665952D02*
X178030000Y-117665952D01*
X177172857Y-117332619D02*
X177649047Y-117332619D01*
X177649047Y-117332619D02*
X177649047Y-118332619D01*
X176887142Y-117380238D02*
X176744285Y-117332619D01*
X176744285Y-117332619D02*
X176506190Y-117332619D01*
X176506190Y-117332619D02*
X176410952Y-117380238D01*
X176410952Y-117380238D02*
X176363333Y-117427857D01*
X176363333Y-117427857D02*
X176315714Y-117523095D01*
X176315714Y-117523095D02*
X176315714Y-117618333D01*
X176315714Y-117618333D02*
X176363333Y-117713571D01*
X176363333Y-117713571D02*
X176410952Y-117761190D01*
X176410952Y-117761190D02*
X176506190Y-117808809D01*
X176506190Y-117808809D02*
X176696666Y-117856428D01*
X176696666Y-117856428D02*
X176791904Y-117904047D01*
X176791904Y-117904047D02*
X176839523Y-117951666D01*
X176839523Y-117951666D02*
X176887142Y-118046904D01*
X176887142Y-118046904D02*
X176887142Y-118142142D01*
X176887142Y-118142142D02*
X176839523Y-118237380D01*
X176839523Y-118237380D02*
X176791904Y-118285000D01*
X176791904Y-118285000D02*
X176696666Y-118332619D01*
X176696666Y-118332619D02*
X176458571Y-118332619D01*
X176458571Y-118332619D02*
X176315714Y-118285000D01*
X175934761Y-118237380D02*
X175887142Y-118285000D01*
X175887142Y-118285000D02*
X175791904Y-118332619D01*
X175791904Y-118332619D02*
X175553809Y-118332619D01*
X175553809Y-118332619D02*
X175458571Y-118285000D01*
X175458571Y-118285000D02*
X175410952Y-118237380D01*
X175410952Y-118237380D02*
X175363333Y-118142142D01*
X175363333Y-118142142D02*
X175363333Y-118046904D01*
X175363333Y-118046904D02*
X175410952Y-117904047D01*
X175410952Y-117904047D02*
X175982380Y-117332619D01*
X175982380Y-117332619D02*
X175363333Y-117332619D01*
X174506190Y-117999285D02*
X174506190Y-117332619D01*
X174744285Y-118380238D02*
X174982380Y-117665952D01*
X174982380Y-117665952D02*
X174363333Y-117665952D01*
X173506190Y-118332619D02*
X173982380Y-118332619D01*
X173982380Y-118332619D02*
X174029999Y-117856428D01*
X174029999Y-117856428D02*
X173982380Y-117904047D01*
X173982380Y-117904047D02*
X173887142Y-117951666D01*
X173887142Y-117951666D02*
X173649047Y-117951666D01*
X173649047Y-117951666D02*
X173553809Y-117904047D01*
X173553809Y-117904047D02*
X173506190Y-117856428D01*
X173506190Y-117856428D02*
X173458571Y-117761190D01*
X173458571Y-117761190D02*
X173458571Y-117523095D01*
X173458571Y-117523095D02*
X173506190Y-117427857D01*
X173506190Y-117427857D02*
X173553809Y-117380238D01*
X173553809Y-117380238D02*
X173649047Y-117332619D01*
X173649047Y-117332619D02*
X173887142Y-117332619D01*
X173887142Y-117332619D02*
X173982380Y-117380238D01*
X173982380Y-117380238D02*
X174029999Y-117427857D01*
D10*
X193645000Y-105910000D02*
X211545000Y-105910000D01*
X193645000Y-100610000D02*
X193645000Y-102260000D01*
X211545000Y-105910000D02*
X211545000Y-100610000D01*
X211545000Y-100610000D02*
X193645000Y-100610000D01*
X193645000Y-104260000D02*
X193645000Y-105910000D01*
X193645000Y-104260000D02*
G75*
G03*
X193645000Y-102260000I0J1000000D01*
G01*
X163715000Y-76340000D02*
X181615000Y-76340000D01*
X163715000Y-71040000D02*
X163715000Y-72690000D01*
X181615000Y-76340000D02*
X181615000Y-71040000D01*
X181615000Y-71040000D02*
X163715000Y-71040000D01*
X163715000Y-74690000D02*
X163715000Y-76340000D01*
X163715000Y-74690000D02*
G75*
G03*
X163715000Y-72690000I0J1000000D01*
G01*
X112470000Y-76290000D02*
X130370000Y-76290000D01*
X112470000Y-70990000D02*
X112470000Y-72640000D01*
X130370000Y-76290000D02*
X130370000Y-70990000D01*
X130370000Y-70990000D02*
X112470000Y-70990000D01*
X112470000Y-74640000D02*
X112470000Y-76290000D01*
X112470000Y-74640000D02*
G75*
G03*
X112470000Y-72640000I0J1000000D01*
G01*
X112485000Y-103670000D02*
X130385000Y-103670000D01*
X112485000Y-98370000D02*
X112485000Y-100020000D01*
X130385000Y-103670000D02*
X130385000Y-98370000D01*
X130385000Y-98370000D02*
X112485000Y-98370000D01*
X112485000Y-102020000D02*
X112485000Y-103670000D01*
X112485000Y-102020000D02*
G75*
G03*
X112485000Y-100020000I0J1000000D01*
G01*
X139155000Y-76280000D02*
X157055000Y-76280000D01*
X139155000Y-70980000D02*
X139155000Y-72630000D01*
X157055000Y-76280000D02*
X157055000Y-70980000D01*
X157055000Y-70980000D02*
X139155000Y-70980000D01*
X139155000Y-74630000D02*
X139155000Y-76280000D01*
X139155000Y-74630000D02*
G75*
G03*
X139155000Y-72630000I0J1000000D01*
G01*
X112465000Y-90020000D02*
X130365000Y-90020000D01*
X112465000Y-84720000D02*
X112465000Y-86370000D01*
X130365000Y-90020000D02*
X130365000Y-84720000D01*
X130365000Y-84720000D02*
X112465000Y-84720000D01*
X112465000Y-88370000D02*
X112465000Y-90020000D01*
X112465000Y-88370000D02*
G75*
G03*
X112465000Y-86370000I0J1000000D01*
G01*
X193775000Y-120340000D02*
X211675000Y-120340000D01*
X193775000Y-115040000D02*
X193775000Y-116690000D01*
X211675000Y-120340000D02*
X211675000Y-115040000D01*
X211675000Y-115040000D02*
X193775000Y-115040000D01*
X193775000Y-118690000D02*
X193775000Y-120340000D01*
X193775000Y-118690000D02*
G75*
G03*
X193775000Y-116690000I0J1000000D01*
G01*
X178700000Y-64580000D02*
X163120000Y-64580000D01*
X165830000Y-64580000D02*
X165830000Y-67380000D01*
X178700000Y-67380000D02*
X178700000Y-64580000D01*
X163120000Y-67380000D02*
X178700000Y-67380000D01*
X163120000Y-64580000D02*
X163120000Y-67380000D01*
X134580000Y-83580000D02*
X134580000Y-87420000D01*
X136420000Y-83580000D02*
X136420000Y-87420000D01*
X110380000Y-63910000D02*
X114220000Y-63910000D01*
X110380000Y-62070000D02*
X114220000Y-62070000D01*
X110350000Y-66360000D02*
X114190000Y-66360000D01*
X110350000Y-64520000D02*
X114190000Y-64520000D01*
X151242000Y-81692000D02*
X155082000Y-81692000D01*
X151242000Y-79852000D02*
X155082000Y-79852000D01*
X123310000Y-64860000D02*
X123310000Y-67600000D01*
X123310000Y-64860000D02*
X128550000Y-64860000D01*
X128550000Y-64860000D02*
X128550000Y-67600000D01*
X123310000Y-67600000D02*
X128550000Y-67600000D01*
X133160000Y-64970000D02*
X133160000Y-67710000D01*
X133160000Y-64970000D02*
X138400000Y-64970000D01*
X138400000Y-64970000D02*
X138400000Y-67710000D01*
X133160000Y-67710000D02*
X138400000Y-67710000D01*
X160120000Y-76190000D02*
X162860000Y-76190000D01*
X160120000Y-76190000D02*
X160120000Y-70950000D01*
X160120000Y-70950000D02*
X162860000Y-70950000D01*
X162860000Y-76190000D02*
X162860000Y-70950000D01*
X111606000Y-70766000D02*
X108866000Y-70766000D01*
X111606000Y-70766000D02*
X111606000Y-76006000D01*
X111606000Y-76006000D02*
X108866000Y-76006000D01*
X108866000Y-70766000D02*
X108866000Y-76006000D01*
X144352000Y-107288000D02*
X144352000Y-104548000D01*
X144352000Y-107288000D02*
X139112000Y-107288000D01*
X139112000Y-107288000D02*
X139112000Y-104548000D01*
X144352000Y-104548000D02*
X139112000Y-104548000D01*
X111500000Y-98150000D02*
X108760000Y-98150000D01*
X111500000Y-98150000D02*
X111500000Y-103390000D01*
X111500000Y-103390000D02*
X108760000Y-103390000D01*
X108760000Y-98150000D02*
X108760000Y-103390000D01*
X138100000Y-70900000D02*
X135360000Y-70900000D01*
X138100000Y-70900000D02*
X138100000Y-76140000D01*
X138100000Y-76140000D02*
X135360000Y-76140000D01*
X135360000Y-70900000D02*
X135360000Y-76140000D01*
X111510000Y-84736000D02*
X108770000Y-84736000D01*
X111510000Y-84736000D02*
X111510000Y-89976000D01*
X111510000Y-89976000D02*
X108770000Y-89976000D01*
X108770000Y-84736000D02*
X108770000Y-89976000D01*
X178462000Y-96854000D02*
X181202000Y-96854000D01*
X178462000Y-96854000D02*
X178462000Y-91614000D01*
X178462000Y-91614000D02*
X181202000Y-91614000D01*
X181202000Y-96854000D02*
X181202000Y-91614000D01*
X109370000Y-107870000D02*
X109370000Y-105130000D01*
X109370000Y-107870000D02*
X104130000Y-107870000D01*
X104130000Y-107870000D02*
X104130000Y-105130000D01*
X109370000Y-105130000D02*
X104130000Y-105130000D01*
X167620000Y-111870000D02*
X167620000Y-109130000D01*
X167620000Y-111870000D02*
X162380000Y-111870000D01*
X162380000Y-111870000D02*
X162380000Y-109130000D01*
X167620000Y-109130000D02*
X162380000Y-109130000D01*
X190130000Y-120140000D02*
X192870000Y-120140000D01*
X190130000Y-120140000D02*
X190130000Y-114900000D01*
X190130000Y-114900000D02*
X192870000Y-114900000D01*
X192870000Y-120140000D02*
X192870000Y-114900000D01*
X190170000Y-70990000D02*
X187430000Y-70990000D01*
X190170000Y-70990000D02*
X190170000Y-76230000D01*
X190170000Y-76230000D02*
X187430000Y-76230000D01*
X187430000Y-70990000D02*
X187430000Y-76230000D01*
X187490000Y-90970000D02*
X190230000Y-90970000D01*
X187490000Y-90970000D02*
X187490000Y-85730000D01*
X187490000Y-85730000D02*
X190230000Y-85730000D01*
X190230000Y-90970000D02*
X190230000Y-85730000D01*
X192850000Y-100400000D02*
X190110000Y-100400000D01*
X192850000Y-100400000D02*
X192850000Y-105640000D01*
X192850000Y-105640000D02*
X190110000Y-105640000D01*
X190110000Y-100400000D02*
X190110000Y-105640000D01*
X188130000Y-128130000D02*
X188130000Y-130870000D01*
X188130000Y-128130000D02*
X193370000Y-128130000D01*
X193370000Y-128130000D02*
X193370000Y-130870000D01*
X188130000Y-130870000D02*
X193370000Y-130870000D01*
X191050000Y-71000000D02*
X191050000Y-72650000D01*
X191050000Y-76300000D02*
X211490000Y-76300000D01*
X211490000Y-71000000D02*
X191050000Y-71000000D01*
X211490000Y-76300000D02*
X211490000Y-71000000D01*
X191050000Y-74650000D02*
X191050000Y-76300000D01*
X191050000Y-74650000D02*
G75*
G03*
X191050000Y-72650000I0J1000000D01*
G01*
X141428000Y-100699000D02*
X177108000Y-100699000D01*
X141428000Y-87779000D02*
X141428000Y-93239000D01*
X177108000Y-100699000D02*
X177108000Y-87779000D01*
X177108000Y-87779000D02*
X141428000Y-87779000D01*
X141428000Y-95239000D02*
X141428000Y-100699000D01*
X141428000Y-95239000D02*
G75*
G03*
X141428000Y-93239000I0J1000000D01*
G01*
X191135000Y-86000000D02*
X191135000Y-87650000D01*
X191135000Y-91300000D02*
X211575000Y-91300000D01*
X211575000Y-86000000D02*
X191135000Y-86000000D01*
X211575000Y-91300000D02*
X211575000Y-86000000D01*
X191135000Y-89650000D02*
X191135000Y-91300000D01*
X191135000Y-89650000D02*
G75*
G03*
X191135000Y-87650000I0J1000000D01*
G01*
X127232000Y-131850000D02*
X130832000Y-131850000D01*
X129032000Y-127400000D02*
G75*
G03*
X127193522Y-131838478I0J-2600000D01*
G01*
X130870478Y-131838478D02*
G75*
G03*
X129032000Y-127400000I-1838478J1838478D01*
G01*
X201020000Y-129500000D02*
G75*
G03*
X201020000Y-129500000I-3270000J0D01*
G01*
X143025000Y-127145000D02*
X160275000Y-127145000D01*
X160275000Y-127145000D02*
X160275000Y-108895000D01*
X142025000Y-126145000D02*
X143025000Y-127145000D01*
X142025000Y-119020000D02*
X142025000Y-126145000D01*
X142025000Y-108895000D02*
X142025000Y-117020000D01*
X160275000Y-108895000D02*
X142025000Y-108895000D01*
X104170000Y-123715000D02*
X139850000Y-123715000D01*
X104170000Y-110795000D02*
X104170000Y-116255000D01*
X139850000Y-123715000D02*
X139850000Y-110795000D01*
X139850000Y-110795000D02*
X104170000Y-110795000D01*
X104170000Y-118255000D02*
X104170000Y-123715000D01*
X104170000Y-118255000D02*
G75*
G03*
X104170000Y-116255000I0J1000000D01*
G01*
X134440000Y-90940000D02*
X135500000Y-90940000D01*
X136560000Y-93000000D02*
X136560000Y-97060000D01*
X134440000Y-93000000D02*
X134440000Y-97060000D01*
X134440000Y-93000000D02*
X136560000Y-93000000D01*
X134440000Y-97060000D02*
X136560000Y-97060000D01*
X134440000Y-92000000D02*
X134440000Y-90940000D01*
X136746000Y-64540000D02*
X137254000Y-64540000D01*
X137254000Y-64540000D02*
X137000000Y-64032000D01*
X137000000Y-64032000D02*
X136746000Y-64540000D01*
X126050000Y-63400000D02*
X126050000Y-56300000D01*
X188550000Y-63400000D02*
X188550000Y-56200000D01*
X188550000Y-63390000D02*
X126090000Y-63390000D01*
X188550000Y-56200000D02*
X186000000Y-46050000D01*
X133900000Y-50500000D02*
X132650000Y-46050000D01*
X180750000Y-50500000D02*
X133900000Y-50500000D01*
X128650000Y-46050000D02*
X126050000Y-56300000D01*
X132650000Y-46050000D02*
X128650000Y-46050000D01*
X182050000Y-46050000D02*
X180750000Y-50500000D01*
X186000000Y-46050000D02*
X182050000Y-46050000D01*
X109743000Y-57571000D02*
X109743000Y-51321000D01*
X114793000Y-57571000D02*
X114793000Y-51321000D01*
X109743000Y-57571000D02*
G75*
G03*
X114793000Y-57571000I2525000J0D01*
G01*
X114793000Y-51321000D02*
G75*
G03*
X109743000Y-51321000I-2525000J0D01*
G01*
D12*
X134250400Y-131601600D02*
X134250400Y-144848400D01*
X134252800Y-144848400D02*
X191552800Y-144848400D01*
X191552800Y-131601600D02*
X191552800Y-144848400D01*
D10*
X137440000Y-90940000D02*
X138500000Y-90940000D01*
X137440000Y-92000000D02*
X137440000Y-90940000D01*
X137440000Y-93000000D02*
X137440000Y-97060000D01*
X137440000Y-93000000D02*
X139560000Y-93000000D01*
X137440000Y-97060000D02*
X139560000Y-97060000D01*
X139560000Y-93000000D02*
X139560000Y-97060000D01*
X162515000Y-120380000D02*
X188035000Y-120380000D01*
X188035000Y-120380000D02*
X188035000Y-115080000D01*
X162515000Y-118730000D02*
X162515000Y-120380000D01*
X162515000Y-115080000D02*
X162515000Y-116730000D01*
X188035000Y-115080000D02*
X162515000Y-115080000D01*
X162515000Y-118730000D02*
G75*
G03*
X162515000Y-116730000I0J1000000D01*
G01*
M02*
