M48
; DRILL file {KiCad (7.0.0-0)} date Thursday, 09 March 2023 at 19:40:11
; FORMAT={-:-/ absolute / metric / decimal}
; #@! TF.CreationDate,2023-03-09T19:40:11+00:00
; #@! TF.GenerationSoftware,Kicad,Pcbnew,(7.0.0-0)
; #@! TF.FileFunction,Plated,1,2,PTH
FMAT,2
METRIC
; #@! TA.AperFunction,Plated,PTH,ViaDrill
T1C0.400
; #@! TA.AperFunction,Plated,PTH,ComponentDrill
T2C0.700
; #@! TA.AperFunction,Plated,PTH,ComponentDrill
T3C0.750
; #@! TA.AperFunction,Plated,PTH,ComponentDrill
T4C0.800
; #@! TA.AperFunction,Plated,PTH,ComponentDrill
T5C0.810
; #@! TA.AperFunction,Plated,PTH,ComponentDrill
T6C2.540
%
G90
G05
T1
X103.647Y-68.575
X104.82Y-68.099
X106.368Y-65.201
X108.511Y-89.963
X108.75Y-81.5
X110.765Y-82.127
X114.469Y-85.598
X116.075Y-62.19
X118.25Y-52.0
X119.25Y-95.144
X120.212Y-75.583
X124.695Y-128.925
X124.762Y-123.504
X124.921Y-79.836
X125.0Y-99.75
X128.002Y-119.801
X128.763Y-116.754
X132.003Y-66.943
X133.802Y-70.335
X134.158Y-112.924
X134.346Y-64.6
X135.129Y-60.737
X136.132Y-69.143
X136.292Y-111.36
X136.325Y-70.182
X137.392Y-111.12
X137.763Y-69.872
X139.59Y-110.667
X141.514Y-113.983
X142.173Y-122.962
X142.762Y-116.731
X142.994Y-83.763
X143.114Y-121.72
X144.564Y-104.698
X145.293Y-105.444
X145.952Y-128.234
X149.089Y-116.929
X150.146Y-110.268
X151.697Y-119.576
X151.774Y-75.66
X155.116Y-64.394
X155.555Y-57.986
X155.92Y-125.718
X156.302Y-111.523
X157.822Y-130.337
X158.21Y-123.852
X158.544Y-128.489
X159.4Y-127.581
X161.73Y-119.54
X162.268Y-120.719
X163.017Y-126.924
X165.374Y-122.545
X169.107Y-115.418
X170.0Y-82.0
X176.77Y-128.678
X178.136Y-130.431
X179.113Y-62.256
X181.702Y-130.43
X182.0Y-89.75
X182.25Y-83.75
X184.0Y-74.25
X185.364Y-79.395
X186.324Y-130.269
X187.425Y-111.652
X187.437Y-112.667
X188.209Y-110.858
X188.308Y-119.736
X188.883Y-110.072
X190.386Y-123.87
X192.945Y-105.145
X197.46Y-73.998
X201.0Y-81.0
T2
X109.73Y-65.44
X109.76Y-62.99
X114.81Y-65.44
X114.84Y-62.99
X135.5Y-82.96
X135.5Y-88.04
X150.622Y-80.772
X155.702Y-80.772
T3
X127.508Y-130.0
X129.032Y-130.0
X130.607Y-130.0
T4
X105.5Y-106.5
X105.5Y-109.635
X105.5Y-124.875
X108.0Y-106.5
X108.04Y-109.635
X108.04Y-124.875
X110.13Y-99.52
X110.13Y-102.02
X110.14Y-86.106
X110.14Y-88.606
X110.236Y-72.136
X110.236Y-74.636
X110.58Y-109.635
X110.58Y-124.875
X112.268Y-51.996
X112.268Y-56.896
X113.12Y-109.635
X113.12Y-124.875
X113.795Y-83.56
X113.795Y-91.18
X113.8Y-69.83
X113.8Y-77.45
X113.815Y-97.21
X113.815Y-104.83
X115.66Y-109.635
X115.66Y-124.875
X116.335Y-83.56
X116.335Y-91.18
X116.34Y-69.83
X116.34Y-77.45
X116.355Y-97.21
X116.355Y-104.83
X118.2Y-109.635
X118.2Y-124.875
X118.875Y-83.56
X118.875Y-91.18
X118.88Y-69.83
X118.88Y-77.45
X118.895Y-97.21
X118.895Y-104.83
X120.74Y-109.635
X120.74Y-124.875
X121.415Y-83.56
X121.415Y-91.18
X121.42Y-69.83
X121.42Y-77.45
X121.435Y-97.21
X121.435Y-104.83
X123.28Y-109.635
X123.28Y-124.875
X123.955Y-83.56
X123.955Y-91.18
X123.96Y-69.83
X123.96Y-77.45
X123.975Y-97.21
X123.975Y-104.83
X124.68Y-66.23
X125.82Y-109.635
X125.82Y-124.875
X126.495Y-83.56
X126.495Y-91.18
X126.5Y-69.83
X126.5Y-77.45
X126.515Y-97.21
X126.515Y-104.83
X127.18Y-66.23
X128.36Y-109.635
X128.36Y-124.875
X129.035Y-83.56
X129.035Y-91.18
X129.04Y-69.83
X129.04Y-77.45
X129.055Y-97.21
X129.055Y-104.83
X130.9Y-109.635
X130.9Y-124.875
X133.44Y-109.635
X133.44Y-124.875
X134.53Y-66.34
X135.5Y-92.0
X135.5Y-94.0
X135.5Y-96.0
X135.98Y-109.635
X135.98Y-124.875
X136.73Y-72.27
X136.73Y-74.77
X137.03Y-66.34
X138.5Y-92.0
X138.5Y-94.0
X138.5Y-96.0
X138.52Y-109.635
X138.52Y-124.875
X140.482Y-105.918
X140.485Y-69.82
X140.485Y-77.44
X142.758Y-86.619
X142.758Y-101.859
X142.982Y-105.918
X143.025Y-69.82
X143.025Y-77.44
X144.8Y-114.21
X144.8Y-116.75
X144.8Y-119.29
X144.8Y-121.83
X145.298Y-86.619
X145.298Y-101.859
X145.565Y-69.82
X145.565Y-77.44
X147.34Y-111.67
X147.34Y-114.21
X147.34Y-116.75
X147.34Y-119.29
X147.34Y-121.83
X147.34Y-124.37
X147.838Y-86.619
X147.838Y-101.859
X148.105Y-69.82
X148.105Y-77.44
X149.88Y-111.67
X149.88Y-114.21
X149.88Y-121.83
X149.88Y-124.37
X150.378Y-86.619
X150.378Y-101.859
X150.645Y-69.82
X150.645Y-77.44
X152.42Y-111.67
X152.42Y-114.21
X152.42Y-121.83
X152.42Y-124.37
X152.918Y-86.619
X152.918Y-101.859
X153.185Y-69.82
X153.185Y-77.44
X154.96Y-111.67
X154.96Y-114.21
X154.96Y-116.75
X154.96Y-119.29
X154.96Y-121.83
X154.96Y-124.37
X155.458Y-86.619
X155.458Y-101.859
X155.725Y-69.82
X155.725Y-77.44
X157.5Y-114.21
X157.5Y-116.75
X157.5Y-119.29
X157.5Y-121.83
X157.998Y-86.619
X157.998Y-101.859
X160.538Y-86.619
X160.538Y-101.859
X161.49Y-72.32
X161.49Y-74.82
X163.078Y-86.619
X163.078Y-101.859
X163.75Y-110.5
X163.845Y-113.92
X163.845Y-121.54
X164.56Y-65.98
X165.045Y-69.88
X165.045Y-77.5
X165.618Y-86.619
X165.618Y-101.859
X166.25Y-110.5
X166.385Y-113.92
X166.385Y-121.54
X167.1Y-65.98
X167.585Y-69.88
X167.585Y-77.5
X168.158Y-86.619
X168.158Y-101.859
X168.925Y-113.92
X168.925Y-121.54
X169.64Y-65.98
X170.125Y-69.88
X170.125Y-77.5
X170.698Y-86.619
X170.698Y-101.859
X171.465Y-113.92
X171.465Y-121.54
X172.18Y-65.98
X172.665Y-69.88
X172.665Y-77.5
X173.238Y-86.619
X173.238Y-101.859
X174.005Y-113.92
X174.005Y-121.54
X174.72Y-65.98
X175.205Y-69.88
X175.205Y-77.5
X175.778Y-86.619
X175.778Y-101.859
X176.545Y-113.92
X176.545Y-121.54
X177.26Y-65.98
X177.745Y-69.88
X177.745Y-77.5
X179.085Y-113.92
X179.085Y-121.54
X179.832Y-92.984
X179.832Y-95.484
X180.285Y-69.88
X180.285Y-77.5
X181.625Y-113.92
X181.625Y-121.54
X184.165Y-113.92
X184.165Y-121.54
X186.705Y-113.92
X186.705Y-121.54
X188.8Y-72.36
X188.8Y-74.86
X188.86Y-87.1
X188.86Y-89.6
X189.5Y-129.5
X191.48Y-101.77
X191.48Y-104.27
X191.5Y-116.27
X191.5Y-118.77
X192.0Y-129.5
X192.38Y-69.84
X192.38Y-77.46
X192.465Y-84.84
X192.465Y-92.46
X194.92Y-69.84
X194.92Y-77.46
X194.975Y-99.45
X194.975Y-107.07
X195.005Y-84.84
X195.005Y-92.46
X195.105Y-113.88
X195.105Y-121.5
X196.5Y-129.5
X197.46Y-69.84
X197.46Y-77.46
X197.515Y-99.45
X197.515Y-107.07
X197.545Y-84.84
X197.545Y-92.46
X197.645Y-113.88
X197.645Y-121.5
X199.0Y-129.5
X200.0Y-69.84
X200.0Y-77.46
X200.055Y-99.45
X200.055Y-107.07
X200.085Y-84.84
X200.085Y-92.46
X200.185Y-113.88
X200.185Y-121.5
X202.54Y-69.84
X202.54Y-77.46
X202.595Y-99.45
X202.595Y-107.07
X202.625Y-84.84
X202.625Y-92.46
X202.725Y-113.88
X202.725Y-121.5
X205.08Y-69.84
X205.08Y-77.46
X205.135Y-99.45
X205.135Y-107.07
X205.165Y-84.84
X205.165Y-92.46
X205.265Y-113.88
X205.265Y-121.5
X207.62Y-69.84
X207.62Y-77.46
X207.675Y-99.45
X207.675Y-107.07
X207.705Y-84.84
X207.705Y-92.46
X207.805Y-113.88
X207.805Y-121.5
X210.16Y-69.84
X210.16Y-77.46
X210.215Y-99.45
X210.215Y-107.07
X210.245Y-84.84
X210.245Y-92.46
X210.345Y-113.88
X210.345Y-121.5
T5
X137.0Y-59.46
X137.0Y-62.0
X139.54Y-59.46
X139.54Y-62.0
X142.08Y-59.46
X142.08Y-62.0
X144.62Y-59.46
X144.62Y-62.0
X147.16Y-59.46
X147.16Y-62.0
X149.7Y-59.46
X149.7Y-62.0
X152.24Y-59.46
X152.24Y-62.0
X154.78Y-59.46
X154.78Y-62.0
X157.32Y-59.46
X157.32Y-62.0
X159.86Y-59.46
X159.86Y-62.0
X162.4Y-59.46
X162.4Y-62.0
X164.94Y-59.46
X164.94Y-62.0
X167.48Y-59.46
X167.48Y-62.0
X170.02Y-59.46
X170.02Y-62.0
X172.56Y-59.46
X172.56Y-62.0
X175.1Y-59.46
X175.1Y-62.0
X177.64Y-59.46
X177.64Y-62.0
T6
X131.16Y-60.22
X183.48Y-60.22
T0
M30
