M48
; DRILL file {KiCad (7.0.0-0)} date Thursday, 27 July 2023 at 10:02:43
; FORMAT={-:-/ absolute / metric / decimal}
; #@! TF.CreationDate,2023-07-27T10:02:43+01:00
; #@! TF.GenerationSoftware,Kicad,Pcbnew,(7.0.0-0)
; #@! TF.FileFunction,Plated,1,4,PTH
FMAT,2
METRIC
; #@! TA.AperFunction,Plated,PTH,ViaDrill
T1C0.400
; #@! TA.AperFunction,Plated,PTH,ComponentDrill
T2C0.700
; #@! TA.AperFunction,Plated,PTH,ComponentDrill
T3C0.750
; #@! TA.AperFunction,Plated,PTH,ComponentDrill
T4C0.800
; #@! TA.AperFunction,Plated,PTH,ComponentDrill
T5C1.000
; #@! TA.AperFunction,Plated,PTH,ComponentDrill
T6C2.700
%
G90
G05
T1
X144.628Y-130.683
X146.424Y-112.033
X148.059Y-99.068
X148.632Y-131.033
X149.973Y-130.288
X150.59Y-88.734
X154.464Y-130.981
X154.467Y-95.954
X155.374Y-129.964
X158.328Y-129.028
X160.336Y-130.972
X161.955Y-103.211
X162.488Y-129.728
X163.16Y-130.53
X163.716Y-88.305
X164.514Y-130.3
X165.146Y-126.998
X166.007Y-130.15
X166.61Y-130.983
X167.709Y-130.807
X167.737Y-126.836
X168.714Y-107.188
X169.134Y-113.328
X169.712Y-96.586
X170.622Y-126.983
X172.222Y-81.496
X172.82Y-108.995
X173.903Y-129.945
X175.588Y-128.938
X177.259Y-129.405
X178.844Y-129.935
X179.303Y-89.773
X181.963Y-126.324
X183.102Y-131.301
X184.181Y-131.053
X185.759Y-131.192
X185.832Y-130.152
T2
X119.888Y-130.048
X124.968Y-130.048
X185.674Y-115.418
X185.674Y-120.498
X191.719Y-108.712
X196.799Y-108.712
X201.803Y-108.712
X201.828Y-111.176
X201.828Y-113.69
X201.854Y-116.23
X206.883Y-108.712
X206.908Y-111.176
X206.908Y-113.69
X206.934Y-116.23
T3
X113.487Y-130.048
X115.011Y-130.048
X116.586Y-130.048
T4
X104.292Y-105.105
X104.394Y-85.09
X104.394Y-100.33
X104.394Y-108.463
X104.394Y-123.703
X104.414Y-82.042
X106.792Y-105.105
X106.914Y-82.042
X106.934Y-85.09
X106.934Y-100.33
X106.934Y-108.463
X106.934Y-123.703
X107.78Y-65.972
X107.78Y-73.592
X109.474Y-85.09
X109.474Y-100.33
X109.474Y-108.463
X109.474Y-123.703
X112.014Y-85.09
X112.014Y-100.33
X112.014Y-108.463
X112.014Y-123.703
X112.898Y-77.622
X114.554Y-85.09
X114.554Y-100.33
X114.554Y-108.463
X114.554Y-123.703
X115.398Y-77.622
X115.4Y-65.972
X115.4Y-73.592
X117.094Y-85.09
X117.094Y-100.33
X117.094Y-108.463
X117.094Y-123.703
X119.634Y-85.09
X119.634Y-100.33
X119.634Y-108.463
X119.634Y-123.703
X122.174Y-85.09
X122.174Y-100.33
X122.174Y-108.463
X122.174Y-123.703
X123.469Y-68.021
X123.469Y-70.521
X124.714Y-85.09
X124.714Y-100.33
X124.714Y-108.463
X124.714Y-123.703
X126.746Y-65.786
X126.746Y-73.406
X127.254Y-85.09
X127.254Y-100.33
X127.254Y-108.463
X127.254Y-123.703
X129.286Y-65.786
X129.286Y-73.406
X129.794Y-85.09
X129.794Y-100.33
X129.794Y-108.463
X129.794Y-123.703
X131.826Y-65.786
X131.826Y-73.406
X132.334Y-85.09
X132.334Y-100.33
X132.334Y-108.463
X132.334Y-123.703
X134.366Y-65.786
X134.366Y-73.406
X134.874Y-85.09
X134.874Y-100.33
X134.874Y-108.463
X134.874Y-123.703
X136.906Y-65.786
X136.906Y-73.406
X137.414Y-85.09
X137.414Y-100.33
X137.414Y-108.463
X137.414Y-123.703
X138.43Y-61.722
X139.446Y-65.786
X139.446Y-73.406
X139.954Y-85.09
X139.954Y-100.33
X139.954Y-108.463
X139.954Y-123.703
X140.97Y-61.722
X141.986Y-65.786
X141.986Y-73.406
X142.24Y-104.394
X142.494Y-85.09
X142.494Y-100.33
X142.494Y-108.463
X142.494Y-123.703
X143.51Y-61.722
X144.74Y-104.394
X146.05Y-61.722
X148.092Y-65.537
X148.092Y-80.777
X148.59Y-61.722
X149.86Y-91.948
X149.86Y-94.488
X149.86Y-97.028
X149.86Y-99.568
X149.86Y-102.108
X149.86Y-104.648
X149.86Y-107.188
X149.86Y-109.728
X149.86Y-112.268
X149.86Y-114.808
X149.86Y-117.348
X150.632Y-65.537
X150.632Y-80.777
X151.13Y-61.722
X151.932Y-125.222
X152.4Y-89.408
X152.4Y-91.948
X152.4Y-94.488
X152.4Y-97.028
X152.4Y-99.568
X152.4Y-102.108
X152.4Y-104.648
X152.4Y-107.188
X152.4Y-109.728
X152.4Y-112.268
X152.4Y-114.808
X152.4Y-117.348
X152.4Y-119.888
X153.172Y-65.537
X153.172Y-80.777
X154.432Y-125.222
X154.94Y-89.408
X154.94Y-91.948
X154.94Y-117.348
X154.94Y-119.888
X155.712Y-65.537
X155.712Y-80.777
X157.48Y-89.408
X157.48Y-91.948
X157.48Y-117.348
X157.48Y-119.888
X158.252Y-65.537
X158.252Y-80.777
X159.044Y-84.328
X160.02Y-89.408
X160.02Y-91.948
X160.02Y-117.348
X160.02Y-119.888
X160.792Y-65.537
X160.792Y-80.777
X161.544Y-84.328
X162.56Y-89.408
X162.56Y-91.948
X162.56Y-117.348
X162.56Y-119.888
X163.332Y-65.537
X163.332Y-80.777
X165.1Y-89.408
X165.1Y-91.948
X165.1Y-117.348
X165.1Y-119.888
X165.872Y-65.537
X165.872Y-80.777
X167.64Y-89.408
X167.64Y-91.948
X167.64Y-117.348
X167.64Y-119.888
X168.412Y-65.537
X168.412Y-80.777
X170.18Y-89.408
X170.18Y-91.948
X170.18Y-117.348
X170.18Y-119.888
X170.952Y-65.537
X170.952Y-80.777
X172.72Y-89.408
X172.72Y-91.948
X172.72Y-117.348
X172.72Y-119.888
X173.492Y-65.537
X173.492Y-80.777
X173.502Y-125.222
X175.26Y-89.408
X175.26Y-91.948
X175.26Y-117.348
X175.26Y-119.888
X175.585Y-84.379
X176.002Y-125.222
X176.032Y-65.537
X176.032Y-80.777
X177.8Y-89.408
X177.8Y-91.948
X177.8Y-94.488
X177.8Y-97.028
X177.8Y-99.568
X177.8Y-102.108
X177.8Y-104.648
X177.8Y-107.188
X177.8Y-109.728
X177.8Y-112.268
X177.8Y-114.808
X177.8Y-117.348
X177.8Y-119.888
X178.085Y-84.379
X178.572Y-65.537
X178.572Y-80.777
X180.34Y-91.948
X180.34Y-94.488
X180.34Y-97.028
X180.34Y-99.568
X180.34Y-102.108
X180.34Y-104.648
X180.34Y-107.188
X180.34Y-109.728
X180.34Y-112.268
X180.34Y-114.808
X180.34Y-117.348
X181.112Y-65.537
X181.112Y-80.777
X184.506Y-65.978
X184.506Y-68.478
X185.42Y-98.552
X185.42Y-101.052
X189.225Y-68.356
X189.225Y-70.856
X189.225Y-84.866
X189.225Y-87.366
X190.297Y-115.992
X190.297Y-117.992
X190.297Y-119.992
X192.527Y-65.776
X192.527Y-73.396
X192.527Y-82.286
X192.527Y-89.906
X193.297Y-115.992
X193.297Y-117.992
X193.297Y-119.992
X194.686Y-128.524
X195.067Y-65.776
X195.067Y-73.396
X195.067Y-82.286
X195.067Y-89.906
X196.291Y-115.99
X196.291Y-117.99
X196.291Y-119.99
X197.186Y-128.524
X197.607Y-65.776
X197.607Y-73.396
X197.607Y-82.286
X197.607Y-89.906
X200.147Y-65.776
X200.147Y-73.396
X200.147Y-82.286
X200.147Y-89.906
X202.687Y-65.776
X202.687Y-73.396
X202.687Y-82.286
X202.687Y-89.906
X203.271Y-128.778
X205.227Y-65.776
X205.227Y-73.396
X205.227Y-82.286
X205.227Y-89.906
X205.771Y-128.778
X207.767Y-65.776
X207.767Y-73.396
X207.767Y-82.286
X207.767Y-89.906
T5
X113.091Y-51.619
X115.631Y-51.619
X118.171Y-51.619
X120.711Y-51.619
X137.16Y-54.61
X137.16Y-57.15
X139.7Y-54.61
X139.7Y-57.15
X142.24Y-54.61
X142.24Y-57.15
X144.78Y-54.61
X144.78Y-57.15
X147.32Y-54.61
X147.32Y-57.15
X149.86Y-54.61
X149.86Y-57.15
X152.4Y-54.61
X152.4Y-57.15
X154.94Y-54.61
X154.94Y-57.15
X157.48Y-54.61
X157.48Y-57.15
X160.02Y-54.61
X160.02Y-57.15
X162.56Y-54.61
X162.56Y-57.15
X165.1Y-54.61
X165.1Y-57.15
X167.64Y-54.61
X167.64Y-57.15
X170.18Y-54.61
X170.18Y-57.15
X172.72Y-54.61
X172.72Y-57.15
X175.26Y-54.61
X175.26Y-57.15
X177.8Y-54.61
X177.8Y-57.15
X209.804Y-111.125
X209.804Y-113.665
X209.804Y-116.205
X209.804Y-118.745
X209.804Y-121.285
X212.344Y-111.125
X212.344Y-113.665
X212.344Y-116.205
X212.344Y-118.745
X212.344Y-121.285
T6
X104.14Y-43.942
X104.14Y-131.064
X211.836Y-43.942
X212.09Y-131.064
T0
M30
